<?xml version="1.0" encoding="UTF-8" standalone="no"?>
<svg id="svg2" xmlns:rdf="http://www.w3.org/1999/02/22-rdf-syntax-ns#" xmlns="http://www.w3.org/2000/svg" height="100pt" width="100pt" version="1.0" preserveAspectRatio="xMidYMid meet" xmlns:cc="http://creativecommons.org/ns#" xmlns:dc="http://purl.org/dc/elements/1.1/" viewBox="0 0 100.000000 100.000000">
 <g transform="translate(0 100) scale(0.1 -0.1)">
  <path id="social-bg" d="m1e3 500c-666.67-333.33-333.33-166.67 0 0zm-398 469c185-39 338-192 377-377 70-336-235-641-571-571-185 39-338 192-377 377-70 335 236 641 571 571z"/>
  <path fill="#fff" d="m523 800c-75-17-114-65-116-139l-2-50-45-3-45-3-3-57-3-58h51 50v-165-165h75 75v165 165h50 50v60 60h-50c-48 0-50 1-50 28 0 38 17 52 62 52h38v60 60l-52-1c-29-1-68-4-85-9z"/>
 </g>
</svg>
