<?xml version="1.0" encoding="UTF-8" standalone="no"?>
<svg id="svg2" xmlns:rdf="http://www.w3.org/1999/02/22-rdf-syntax-ns#" xmlns="http://www.w3.org/2000/svg" height="100pt" width="100pt" version="1.0" preserveAspectRatio="xMidYMid meet" xmlns:cc="http://creativecommons.org/ns#" xmlns:dc="http://purl.org/dc/elements/1.1/" viewBox="0 0 100.000000 100.000000">
 <g transform="translate(0 100) scale(0.1 -0.1)">
  <path id="social-bg" d="m602 969c185-39 338-192 377-377 70-336-235-641-571-571-185 39-338 192-377 377-70 335 236 641 571 571z"/>
  <path fill="#fff" d="m306 796c-49-19-92-60-108-105-15-41-18-322-5-384 12-57 59-104 124-123 42-12 89-15 211-12 180 4 221 17 263 85 22 35 24 50 27 209 5 224-11 278-91 321-44 24-362 30-421 9zm390-62c57-27 64-52 64-239 0-258-2-260-265-260-249 0-249 0-250 260 0 249 5 254 258 255 127 0 166-3 193-16z"/>
  <path fill="#fff" d="m455 645c-22-8-54-30-72-49-93-101-21-266 117-266 81 0 138 43 162 121 35 118-89 234-207 194zm107-67c30-15 51-66 43-105-15-82-116-113-176-54-22 22-29 39-29 68 0 86 83 132 162 91z"/>
 </g>
</svg>
