<?xml version="1.0" encoding="UTF-8" standalone="no"?>
<svg id="svg2" xmlns:rdf="http://www.w3.org/1999/02/22-rdf-syntax-ns#" xmlns="http://www.w3.org/2000/svg" height="100pt" width="100pt" version="1.0" preserveAspectRatio="xMidYMid meet" xmlns:cc="http://creativecommons.org/ns#" xmlns:dc="http://purl.org/dc/elements/1.1/" viewBox="0 0 100.000000 100.000000">
 <g transform="translate(0 100) scale(0.1 -0.1)">
  <path id="social-bg" d="m602 969c185-39 338-192 377-377 70-336-235-641-571-571-185 39-338 192-377 377-70 335 236 641 571 571z"/>
  <path fill="#fff" d="m434 811c-81-37-116-97-115-198v-64l-32 6c-18 3-38 1-45-3-22-15-10-45 21-53 34-9 57-27 57-43 0-29-67-98-118-122-62-29-59-45 13-63 36-9 45-16 45-32 0-20 4-21 41-16 34 4 53 0 106-29 86-45 129-45 215 1 53 28 72 33 102 28 32-5 38-3 43 15 3 14 21 26 54 37 57 19 64 42 17 52-43 8-130 97-126 127 2 12 17 28 37 38 49 24 57 34 41 53-10 12-23 15-49 10l-36-6 4 52c2 29-2 69-8 90-34 112-160 168-267 120z"/>
 </g>
</svg>
