<?xml version="1.0" encoding="UTF-8" standalone="no"?>
<svg id="svg2" xmlns:rdf="http://www.w3.org/1999/02/22-rdf-syntax-ns#" xmlns="http://www.w3.org/2000/svg" height="100pt" width="100pt" version="1.0" preserveAspectRatio="xMidYMid meet" xmlns:cc="http://creativecommons.org/ns#" xmlns:dc="http://purl.org/dc/elements/1.1/" viewBox="0 0 100.000000 100.000000">
 <g transform="translate(0 100) scale(0.1 -0.1)">
  <path id="social-bg" d="m602 969c185-39 338-192 377-377 70-336-235-641-571-571-185 39-338 192-377 377-70 335 236 641 571 571z"/>
  <path fill="#fff" d="m416 793c-9-55-40-99-86-123-39-20-40-22-40-70v-50h34 34l4-132c4-148 14-180 70-220 28-19 45-23 113-23 54 0 92 6 118 17 36 17 37 18 37 72v56l-32-20c-38-23-95-26-120-6-15 11-18 31-18 135v121h75 75v60 60h-75-75v80 80h-54-53l-7-37z"/>
 </g>
</svg>
