<?xml version="1.0" encoding="UTF-8" standalone="no"?>
<svg id="svg2" xmlns:rdf="http://www.w3.org/1999/02/22-rdf-syntax-ns#" xmlns="http://www.w3.org/2000/svg" height="100pt" width="100pt" version="1.0" preserveAspectRatio="xMidYMid meet" xmlns:cc="http://creativecommons.org/ns#" xmlns:dc="http://purl.org/dc/elements/1.1/" viewBox="0 0 100.000000 100.000000">
 <g transform="translate(0 100) scale(0.1 -0.1)">
  <path id="social-bg" d="m602 969c185-39 338-192 377-377 70-336-235-641-571-571-185 39-338 192-377 377-70 335 236 641 571 571z"/>
  <path fill="#fff" d="m583 700c-38-23-63-67-63-110 0-36-7-37-90-11-37 12-86 38-120 65-32 24-61 42-64 39-15-15-5-101 14-126 25-32 25-36 0-30-42 11-10-76 38-101 25-14 26-15 5-16-13 0-23-3-23-6 0-19 46-65 75-75 19-7 35-16 35-20 0-10-77-38-130-47l-45-8 44-18c155-62 307-31 414 83 59 63 94 136 103 216 5 41 13 64 26 73 10 7 23 22 28 32 10 18 8 19-16 10-34-13-39-8-14 15 11 10 20 24 20 32 0 11-6 10-31-3-30-15-34-15-69 5-47 26-95 27-137 1z"/>
 </g>
</svg>
