<svg xmlns="http://www.w3.org/2000/svg" height="64" width="64" version="1.1" viewBox="0 0 64 64"><g transform="translate(0 -988.4)"><g transform="matrix(1.25 0 0 -1.25 80.46 1098)"><path d="m0 0c0 0 0 0.1 0 0.1l0-0.1z" fill="#1f1f1f"/></g><g transform="matrix(.3782 0 0 -.3782 -71.92 1070)"><g transform="translate(277.4 124.2)"><path d="m0 0c-0.6 0.9-1.6 1.5-2.6 1.5-1.1 0-2.1-0.6-2.6-1.5l-30.8-49.5c-0.6-1-0.6-2.2-0.1-3.2 0.6-1 1.6-1.6 2.7-1.6h61.6c1.1 0 2.2 0.6 2.7 1.6 0.6 1 0.5 2.2-0.1 3.2l-30.8 49.5z" fill="#1f1f1f"/></g><g transform="translate(277.8 173)"><path d="m0 0c5.6 0 10.1 4.5 10.1 10.1 0 5.6-4.5 10.1-10.1 10.1s-10.1-4.5-10.1-10.1c0-5.6 4.5-10.1 10.1-10.1" fill="#1f1f1f"/></g><g transform="translate(290.8 191.7)"><path d="m0 0c3.7 0 6.8 3 6.8 6.8 0 3.7-3 6.8-6.8 6.8-3.7 0-6.8-3-6.8-6.8 0-3.7 3-6.8 6.8-6.8" fill="#1f1f1f"/></g><g transform="translate(313.1 68.87)"><path d="m0 0 0 0c-1.5-2.7-4.4-4.4-7.5-4.4h-61.6c-3.1 0-6 1.7-7.5 4.4-0.7 1.3-1.1 2.7-1.1 4.2 0 1.6 0.4 3.2 1.3 4.6l30.9 49.7-0.1-0.1c0.7 1.1 3.3 3 3.3 3.1v9.5 4.8h8.9v-5-9.8c0.1 0 0.1-0.1 0.2-0.1 0.9-0.6 1.7-1.5 2.3-2.4l0.1-0.1 30.7-49.4 0 0c0.9-1.4 1.3-3 1.3-4.6 0-1.4-0.4-2.9-1.1-4.2m-50 89.1c0.4 0.4 0.9 0.6 1.5 0.6h20.8c0.6 0 1.1-0.2 1.5-0.6 0.4-0.4 0.7-1 0.7-1.6 0-0.7-0.3-1.2-0.7-1.6-0.4-0.4-0.9-0.6-1.5-0.6h-20.8c-0.6 0-1.1 0.2-1.5 0.6-0.4 0.4-0.7 1-0.7 1.6 0 0.7 0.3 1.2 0.7 1.7m60.1-84.9c0 3.2-0.9 6.5-2.7 9.3l0 0-30.7 49.5 0 0.1c-0.3 0.5-0.7 1-1.1 1.5v13.2c1.5 0.5 2.8 1.4 3.9 2.5 1.8 1.8 2.9 4.4 2.9 7.2 0 2.8-1.1 5.3-2.9 7.2-1.8 1.8-4.4 3-7.2 3h-20.8c-2.8 0-5.4-1.2-7.2-3-1.8-1.8-2.9-4.4-2.9-7.2 0-2.8 1.1-5.3 2.9-7.2 1.2-1.2 2.7-2.1 4.3-2.6v-12c-0.7-0.8-1.4-1.6-2-2.6l-30.8-49.5c-1.8-2.8-2.7-6.1-2.7-9.3 0-2.9 0.7-5.9 2.2-8.6 3.1-5.6 9-9.1 15.4-9.1h61.6c6.4 0 12.3 3.5 15.4 9.1h0c1.5 2.7 2.2 5.6 2.2 8.6" fill="#1f1f1f"/></g></g></g></svg>