<?xml version="1.0" encoding="UTF-8" standalone="no"?>
<svg id="svg2" xmlns:rdf="http://www.w3.org/1999/02/22-rdf-syntax-ns#" xmlns="http://www.w3.org/2000/svg" height="64pt" viewBox="0 0 64 64" width="64pt" version="1.1" xmlns:cc="http://creativecommons.org/ns#" xmlns:dc="http://purl.org/dc/elements/1.1/">
 <path id="path6" fill="#252524" d="m31.316 7.9838c8.0178-0.83279 16.433 1.5586 22.421 7.0524 2.4661 2.1554 4.6486 4.7114 6.2426 7.558 1.026 2.92 0.76732 6.079 1.2713 9.103 0.4076 4.2342-0.69562 8.6108-3.4587 11.9-3.0636 4.3203-7.523 7.663-12.704 8.9464-5.6095 2.1128-11.755 2.3368-17.639 1.4404-2.5954-1.1159-4.2966 1.5126-6.7243 2.0315-3.1687 1.0448-6.7158 1.3255-9.9278 0.36046-2.7364-2.189 2.946-2.78 3.111-5.225 0.462-3.008-4.0608-3.625-5.4981-5.911-2.6696-2.992-5.104-6.683-5.0088-10.865-0.3263-4.246-0.2035-8.849 2.453-12.413 4.1158-6.805 11.478-10.849 18.905-13.043 2.167-0.4268 4.362-0.6952 6.557-0.9332z"/>
 <path id="path8" fill="#fefefe" d="m30.134 10.442c5.037-0.70264 10.122 0.69786 14.795 2.4631 3.4384 1.6639 6.1811 4.3876 9.3109 6.5225 2.2222 3.2452 3.3522 7.1805 3.857 11.045 0.32667 7.73-4.3967 15.48-11.391 18.78-6.1545 2.2441-12.833 2.851-19.317 1.9909-3.5282-0.99258-5.8945 1.9121-8.9513 2.8563-1.1967 0.38545-5.5349 1.3438-3.0217-0.60334 2.6839-2.351 1.7332-5.7621-1.3821-6.8793-4.9625-3.776-8.1333-9.9-7.8309-16.192-0.3592-3.207 1.0796-6.138 3.1869-8.439 2.149-3.531 5.38-6.317 9.208-7.877 3.632-1.8 7.549-2.967 11.536-3.668z"/>
</svg>
