<svg xmlns="http://www.w3.org/2000/svg" height="64" width="64" version="1.1" viewBox="0 0 64 64"><g transform="translate(0 -988.4)"><g transform="matrix(.5154 0 0 -.5154 -21.67 1177)"><g transform="translate(144.7 290)"><path d="m0 0c-3.1-6.3-7.8-11.9-13.8-16.4-8.1-5.9-17.4-8.7-26.6-8.7-7 0-13.9 1.6-20.2 4.7-6.3 3.1-11.9 7.8-16.4 13.8-5.9 8.1-8.7 17.4-8.7 26.7 0 5.9 1.1 11.8 3.4 17.2 0.8 1.9 1.7 3.7 2.7 5.5l5.1-10.2c1-2 3.5-2.9 5.5-1.8 2 1 2.9 3.5 1.8 5.5l-6.8 13.5c0.8-0.4 1.7-1 2.7-1.6 3.6-2.4 8.5-6.2 13.8-12.3 0.8-0.9 1.9-1.4 3.1-1.4h24.8c1 0 2 0.4 2.7 1 6.3 5.6 12.2 9.5 16.4 12.1l-5.6-10.3c-1.1-2-0.4-4.5 1.6-5.6 2-1.1 4.5-0.4 5.6 1.6l6.3 11.6c5-7.6 7.4-16.2 7.4-24.7 0-7-1.6-13.9-4.7-20.2m2.7 51.7c-1.6 2.2-3.4 4.3-5.3 6.2-1.2 1.2-3 1.5-4.6 0.9l0 0c-0.3-0.1-11-4.9-24.1-16.1h-21.4c-5.6 6.1-10.7 10.1-14.6 12.6-4.2 2.7-6.9 3.8-7.1 3.8l0-0.1c-1.4 0.4-2.9 0-4-1-5.2-5.1-9.1-11.1-11.7-17.6-2.6-6.5-4-13.4-4-20.3 0-10.9 3.4-22 10.3-31.5 5.2-7.2 11.9-12.7 19.4-16.4 7.4-3.7 15.6-5.6 23.9-5.6 10.9 0 22 3.4 31.5 10.3 7.2 5.2 12.7 11.9 16.4 19.4 3.7 7.4 5.6 15.6 5.6 23.9 0 10.9-3.4 22-10.3 31.5" fill="#1f1f1f"/></g><g transform="translate(90.1 303.7)"><path d="m0 0-11 11.4c-1.6 1.6-4.2 1.7-5.8 0.1-1.6-1.6-1.7-4.2-0.1-5.8l4.5-4.7h-10c-2.7 0-4.8-1.8-4.8-4.1 0-2.3 2.2-4.1 4.8-4.1h12.2l-5.1-7.4c-1.3-1.9-0.8-4.4 1.1-5.7 1.9-1.3 4.4-0.8 5.7 1.1l9.3 13.6c0.3 0.5 0.5 1 0.7 1.6 0.1 0.3 0.1 0.7 0.1 1 0 1.2-0.6 2.3-1.6 3.1" fill="#1f1f1f"/></g><g transform="translate(128.5 302.6)"><path d="m0 0 5.1 7.4c1.3 1.9 0.8 4.4-1.1 5.7-1.9 1.3-4.4 0.8-5.7-1.1l-9.3-13.6c-0.3-0.5-0.5-1-0.6-1.6-0.1-0.3-0.1-0.7-0.1-1 0-1.2 0.6-2.3 1.6-3.1l11-11.4c1.6-1.6 4.2-1.7 5.8-0.1 1.6 1.6 1.7 4.2 0.1 5.8l-4.5 4.7h10c2.7 0 4.8 1.8 4.8 4.1 0 2.3-2.1 4.1-4.8 4.1h-12.2z" fill="#1f1f1f"/></g><g transform="translate(108.2 301.1)"><path d="m0 0h-8.2c-2.3 0-4.1-1.8-4.1-4.1 0-2.3 1.8-4.1 4.1-4.1 0-2.3 1.8-4.1 4.1-4.1s4.1 1.8 4.1 4.1c2.3 0 4.1 1.8 4.1 4.1 0 2.3-1.8 4.1-4.1 4.1" fill="#1f1f1f"/></g></g></g></svg>