<svg xmlns="http://www.w3.org/2000/svg" height="64" width="64" version="1.1" viewBox="0 0 64 64"><g transform="translate(0 -988.36)"><g transform="matrix(.59841 0 0 -.59841 34.469 1038.6)"><path d="m0 0v40.7h29.1l-29.1-40.7zm-8.2 40.7v-40.7l-29.1 40.7h29.1zm28.2 25.9 10.1-17.6h-25.2l15.1 17.6zm-28.2-10.6-11.7 13.6h11.7v-13.6zm8.2 13.6h11.7l-11.7-13.6v13.6zm-28.2-3 15.1-17.6h-25.2l10.1 17.6zm69.1-23.4c0.1 0.2 0.1 0.3 0.2 0.5 0 0.1 0 0.2 0.1 0.2 0 0.2 0.1 0.4 0.1 0.5 0 0.1 0 0.2 0 0.3 0 0.2 0 0.4 0 0.6 0 0.1 0 0.2 0 0.3 0 0.2-0.1 0.3-0.1 0.5 0 0.1 0 0.1-0.1 0.2-0.1 0.2-0.1 0.4-0.2 0.6 0 0 0 0.1-0.1 0.1 0 0 0 0 0 0.1l-16.5 28.9c-0.1 0.2-0.2 0.3-0.3 0.5 0 0 0 0-0.1 0.1-0.1 0.2-0.3 0.3-0.5 0.5 0 0 0 0.1-0.1 0.1 0 0 0 0-0.1 0.1-0.2 0.1-0.4 0.3-0.6 0.4-0.1 0-0.1 0.1-0.2 0.1-0.2 0.1-0.3 0.2-0.5 0.2-0.1 0-0.1 0-0.2 0.1-0.2 0.1-0.4 0.1-0.7 0.1 0 0-0.1 0-0.1 0-0.1 0-0.3 0-0.4 0h-49.5c-0.1 0-0.3 0-0.4 0 0 0-0.1 0-0.1 0-0.2 0-0.5-0.1-0.7-0.1-0.1 0-0.1 0-0.2-0.1-0.2-0.1-0.3-0.1-0.5-0.2-0.1 0-0.1 0-0.2-0.1-0.2-0.1-0.4-0.2-0.6-0.4 0 0-0.1 0-0.1-0.1 0 0 0-0.1-0.1-0.1-0.2-0.1-0.3-0.3-0.5-0.5 0 0 0 0-0.1-0.1-0.1-0.1-0.2-0.3-0.3-0.5l-16.5-28.9c0 0 0 0 0-0.1 0 0 0-0.1-0.1-0.1-0.1-0.2-0.2-0.4-0.2-0.6 0-0.1 0-0.1 0-0.2-0.1-0.2-0.1-0.4-0.1-0.5 0-0.1 0-0.2 0-0.2 0-0.2 0-0.4 0-0.6 0-0.1 0-0.1 0-0.2 0-0.2 0.1-0.4 0.1-0.6 0-0.1 0-0.1 0.1-0.2 0.1-0.2 0.1-0.3 0.2-0.5 0 0 0-0.1 0.1-0.1 0.1-0.2 0.2-0.4 0.3-0.5l41.2-57.7c0.8-1.1 2-1.7 3.4-1.7 1.3 0 2.6 0.6 3.4 1.7l41.2 57.7c0.1 0.2 0.2 0.3 0.3 0.5 0 0.1 0.1 0.1 0.1 0.2" fill="#1f1f1f"/></g></g></svg>