<svg xmlns:svg="http://www.w3.org/2000/svg" xmlns="http://www.w3.org/2000/svg" width="64" height="64" viewBox="0 0 64 64" version="1.1"><style>.s0{fill:#1f1f1f;}</style><g transform="translate(0,-988.3622)"><g transform="matrix(1.25,0,0,-1.25,80.459662,1098.2927)"><path d="M0 0C0 0 0 0.1 0 0.1L0 0Z" fill="#1f1f1f"/></g><g transform="matrix(0.49509576,0,0,-0.49509576,-188.50907,1084.8745)"><g transform="translate(495.3477,141.6201)"><path d="m0 0c-0.1-0.4-0.2-1.1-0.5-2-0.9-3.1-3-8.8-7.9-15.4-4.9-6.6-12.4-14-24.2-20.9-9.5-5.5-20.1-8.6-28.8-10.3-4.4-0.8-8.2-1.3-11.3-1.6-1.5-0.1-2.8-0.2-3.9-0.3-1-0.1-1.8-0.1-2.3-0.1l-0.1 0c-1.9 0.6-3.5 1.8-4.6 3.3-1.2 1.6-1.8 3.5-1.8 5.5 0 0.6 0.1 1.2 0.2 1.8 0 0.1 0 0.2 0 0.4 0.1 1.7 0.5 3 1 4.1 0.5 1 1.1 1.8 1.9 2.6 0.7 0.7 1.6 1.3 2.6 1.9 1.8 1 4 1.9 6.5 2.8 3.8 1.3 8.2 2.4 12.9 4 4.7 1.5 9.7 3.5 14.4 6.4 4 2.5 7.6 5.5 10.8 8.7 2.4 2.4 4.6 4.8 6.7 7.1 1.6 1.7 3.1 3.4 4.6 4.9 2.2 2.2 4.3 4.1 6.3 5.3 1 0.6 2 1.1 2.9 1.4 1 0.3 1.9 0.5 2.8 0.5 1 0 2.1-0.2 3.3-0.6C-8.2 9.3-8 9.3-7.8 9.2-7.4 9.2-7 9.1-6.7 9-4.7 8.4-3 7.3-1.8 5.7-0.7 4.2 0 2.3 0.1 0.3 0 0.3 0 0.2 0 0m-95.9-29.4c-0.1-0.6-0.2-1.3-0.2-1.9-0.8 0.5-1.4 1.2-2 2-1.2 1.6-1.8 3.5-1.8 5.5 0 0.6 0.1 1.2 0.2 1.8 0 0.1 0 0.2 0 0.4 0.1 1.7 0.5 3 1 4.1 0.5 1 1.1 1.8 1.9 2.6 0.7 0.7 1.6 1.3 2.6 1.9 1.8 1 4 1.9 6.5 2.8 3.8 1.3 8.2 2.4 12.9 4 4.7 1.5 9.7 3.5 14.4 6.4 4 2.5 7.6 5.5 10.8 8.7 2.4 2.4 4.6 4.8 6.7 7.1 1.6 1.7 3.1 3.4 4.6 4.8 2.2 2.2 4.3 4.1 6.3 5.3 1 0.6 2 1.1 2.9 1.4 1 0.3 1.9 0.5 2.8 0.5 1 0 2.1-0.2 3.3-0.6 0.2-0.1 0.4-0.1 0.5-0.1 0.4-0.1 0.8-0.1 1.1-0.2l0 0c2-0.6 3.7-1.7 4.9-3.3 0.3-0.4 0.6-0.9 0.9-1.4C-30 26.9-38.5 4.8-55.2-5.4-73-16.2-94.8-13.2-95.9-29.4M5.9 0.4l0 0c-0.1 3.2-1.2 6.3-3.1 8.8-1.9 2.5-4.6 4.5-7.9 5.4-0.3 0.1-0.5 0.1-0.8 0.2-0.7 1.6-1.6 3-2.9 4.2-0.2 3-1.3 5.8-3 8.1-1.9 2.5-4.6 4.5-7.9 5.4l0 0c-0.5 0.2-1.1 0.3-1.6 0.3-1.6 0.5-3.3 0.8-4.9 0.8-1.9 0-3.7-0.4-5.4-1-1.5-0.6-2.9-1.3-4.2-2.2-2.4-1.6-4.5-3.6-6.7-5.7-3.2-3.3-6.4-7-9.8-10.5-3.4-3.5-7-6.8-11-9.2-4.2-2.5-8.7-4.3-13.1-5.8-3.3-1.1-6.7-2-9.8-3-2.4-0.7-4.7-1.5-6.8-2.3-1.6-0.7-3.1-1.4-4.5-2.3-1.1-0.7-2.1-1.4-3-2.3-1.4-1.3-2.5-2.8-3.4-4.6-0.8-1.7-1.3-3.7-1.5-5.9-0.2-0.9-0.2-1.8-0.2-2.6 0-3.3 1.1-6.4 3-9 1.9-2.6 4.7-4.5 8-5.5l0 0c0.2 0 0.3-0.1 0.3-0.1 0.1 0 0.2 0 0.2 0l0.1 0c0.8-1.2 1.8-2.3 3-3.1l0-0.2c0-3.3 1.1-6.4 3-9 1.9-2.6 4.7-4.5 8-5.5l0 0c0.1 0 0.2-0.1 0.3-0.1 0.1 0 0.2 0 0.2 0 0.1 0 0.2 0 0.2 0 0.2 0 0.4 0 0.6 0 0.6 0 1.4 0 2.6 0.1 3.9 0.2 11 0.8 19.5 2.7 8.4 1.9 18.1 5 27.1 10.2 7.8 4.5 13.9 9.3 18.7 14.1 7.2 7.1 11.4 14 13.8 19.3 1.2 2.7 2 4.9 2.4 6.6 0.2 0.9 0.4 1.6 0.5 2.1 0.1 0.3 0.1 0.5 0.1 0.7 0 0.1 0 0.2 0 0.3 0 0.1 0 0.2 0 0.4L5.9 0.4Z" fill="#1f1f1f"/></g><g transform="translate(422.6543,97.917)"><path d="m0 0c1.7-0.5 3.6-0.7 5.5-0.7 2.6 0 5.4 0.4 8.3 1.1 5.1 1.2 10.5 3.3 15.9 6 8.1 4 16.1 9.4 22.6 15.1 3.2 2.9 6.1 5.8 8.3 8.8 1.1 1.5 2.1 3 2.9 4.5 0.8 1.5 1.5 3 1.9 4.5 0.4 1.5-0.5 3.1-2 3.6-1.5 0.4-3.1-0.5-3.6-2C59.5 39.3 58.6 37.5 57.3 35.6 55.1 32.2 51.7 28.6 47.6 25 41.4 19.7 33.7 14.7 26.1 11 22.3 9.2 18.5 7.7 15 6.7 11.5 5.6 8.2 5.1 5.5 5.1 4 5.1 2.7 5.3 1.6 5.6 0 6-1.6 5.1-2 3.6-2.4 2-1.5 0.4 0 0" fill="#1f1f1f"/></g></g></g></svg>