<svg xmlns="http://www.w3.org/2000/svg" height="64" width="64" version="1.1" viewBox="0 0 64 64"><g transform="translate(0 -988.36)"><g transform="matrix(.38875 0 0 -.38875 -8.4808 1205.4)"><path d="m0 0h-48.8l-1.1 2.8c0.6 0.2 1.1 0.4 1.6 0.6 1.8 0.9 3.1 2.2 4.1 3.3h10.9c0.2-0.3 0.5-0.6 0.8-0.9 0.9-0.9 2-1.7 3.3-2.4 1.3-0.7 2.9-1.1 4.7-1.1 1.8 0 3.4 0.5 4.7 1.1 1.8 0.9 3.2 2.2 4.1 3.3h10.9c0.2-0.3 0.5-0.6 0.8-0.9 0.9-0.9 2-1.7 3.3-2.4 0.5-0.3 1.1-0.5 1.6-0.6l-1.1-2.8zm-5.9-14.8h-36.9l-3.4 8.5h43.7l-3.4-8.5zm-5.9-14.8h-25l-3.4 8.5h31.8l-3.4-8.5zm-5.9-14.8h-13.2l-3.4 8.5h19.9l-3.4-8.5zm-6.6-16.5-4 10.1h8.1l-4-10.1zm39.2 75.8c-0.1 0.7-0.3 1.7-0.7 2.6-0.3 0.7-0.7 1.5-1.2 2.3-0.8 1.1-1.8 2.2-3.3 3 1.8 4.3 2.8 9.1 2.8 14.1 0 20.3-16.4 36.7-36.7 36.7-20.3 0-36.7-16.4-36.7-36.7 0-5 1-9.8 2.8-14.1-0.5-0.2-1-0.5-1.5-0.8-1.1-0.8-2.2-1.8-3-3.3-0.8-1.4-1.2-3.3-1.2-5.4 0-2.6 0.7-4.7 1.7-6.2 0.8-1.2 1.8-2 2.8-2.7 0.8-0.5 1.7-0.9 2.5-1.2l29.5-73.7c0.5-1.2 1.7-2 3-2 1.3 0 2.5 0.8 3 2l29.5 73.7c0.2 0.1 0.3 0.1 0.5 0.2 0.7 0.3 1.5 0.7 2.3 1.2 1.1 0.8 2.2 1.8 3 3.3 0.8 1.4 1.2 3.3 1.2 5.4 0 0.1 0 0.7-0.2 1.7" transform="translate(128.51 475.63)" fill="#1f1f1f"/><g transform="translate(122.85 503.53)"><path d="m0 0h0.9l-0.9 0v0h0.9l-0.9 0v0c0 0 0-0.2-0.1-0.5 0-0.2-0.1-0.4-0.2-0.6-0.1-0.2-0.2-0.3-0.3-0.4-0.2-0.2-0.3-0.4-0.6-0.5-0.3-0.1-0.6-0.2-1.2-0.2-0.3 0-0.6 0-0.8 0.1-0.4 0.1-0.6 0.3-0.8 0.5-0.1 0.1-0.3 0.3-0.4 0.5-0.1 0.3-0.2 0.6-0.3 0.9 0 0.1 0 0.2 0 0.3l0 0.1v0l-0.9 0h0.9v0l-0.9 0h0.9c0 0.9-0.7 1.6-1.6 1.6s-1.6-0.7-1.6-1.6c0-0.1 0-0.4 0.1-0.9 0.1-0.4 0.2-0.8 0.3-1.3 0.1-0.4 0.3-0.7 0.6-1.1 0.4-0.6 1-1.1 1.7-1.5 0.8-0.4 1.7-0.6 2.7-0.6 0.6 0 1.2 0.1 1.7 0.2 0.9 0.3 1.7 0.8 2.2 1.3 0.4 0.4 0.7 0.9 0.9 1.3 0.3 0.7 0.5 1.3 0.5 1.7 0.1 0.5 0.1 0.8 0.1 0.8 0 0.9-0.7 1.6-1.6 1.6-0.9 0-1.6-0.7-1.6-1.6" fill="#fff"/></g><g transform="translate(107.05 521.54)"><path d="m0 0h0.9l-0.9 0v0h0.9l-0.9 0v0c0 0 0-0.2-0.1-0.5 0-0.2-0.1-0.4-0.2-0.6-0.1-0.2-0.2-0.3-0.3-0.4-0.2-0.2-0.3-0.4-0.6-0.5-0.3-0.1-0.6-0.2-1.2-0.2-0.3 0-0.6 0-0.8 0.1-0.4 0.1-0.6 0.3-0.8 0.5-0.1 0.1-0.3 0.3-0.3 0.5-0.1 0.3-0.2 0.6-0.3 0.9 0 0.1 0 0.2 0 0.3l0 0.1v0l-0.9 0h0.9v0l-0.9 0h0.9c0 0.9-0.7 1.6-1.6 1.6s-1.6-0.7-1.6-1.6c0-0.1 0-0.4 0.1-0.9 0.1-0.4 0.2-0.8 0.3-1.3 0.1-0.4 0.3-0.7 0.6-1.1 0.4-0.6 1-1.1 1.7-1.5 0.8-0.4 1.7-0.6 2.7-0.6 0.6 0 1.2 0.1 1.7 0.2 0.9 0.3 1.7 0.8 2.2 1.3 0.4 0.4 0.7 0.9 0.9 1.3 0.3 0.7 0.5 1.3 0.5 1.7 0.1 0.5 0.1 0.8 0.1 0.8 0 0.9-0.7 1.6-1.6 1.6-0.9 0-1.6-0.7-1.6-1.6" fill="#fff"/></g><g transform="translate(90.896 504.06)"><path d="m0 0h0.9l-0.9 0v0h0.9l-0.9 0v0c0 0 0-0.2-0.1-0.5 0-0.2-0.1-0.4-0.2-0.6-0.1-0.2-0.2-0.3-0.3-0.4-0.2-0.2-0.3-0.4-0.6-0.5-0.3-0.1-0.6-0.2-1.2-0.2-0.3 0-0.6 0-0.8 0.1-0.4 0.1-0.6 0.3-0.8 0.5-0.1 0.1-0.3 0.3-0.3 0.5-0.1 0.3-0.2 0.6-0.3 0.9 0 0.1 0 0.2 0 0.3l0 0.1v0l-0.9 0h0.9v0l-0.9 0h0.9c0 0.9-0.7 1.6-1.6 1.6-0.9 0-1.6-0.7-1.6-1.6 0-0.1 0-0.4 0.1-0.9 0.1-0.4 0.2-0.8 0.4-1.3 0.1-0.4 0.3-0.7 0.6-1.1 0.4-0.6 1-1.1 1.7-1.5 0.8-0.4 1.7-0.6 2.7-0.6 0.6 0 1.2 0.1 1.7 0.2 0.9 0.3 1.7 0.8 2.2 1.3 0.4 0.4 0.7 0.9 0.9 1.3 0.3 0.7 0.5 1.3 0.5 1.7 0.1 0.5 0.1 0.8 0.1 0.8 0 0.9-0.7 1.6-1.6 1.6s-1.6-0.7-1.6-1.6" fill="#fff"/></g><g transform="translate(135.67 510.58)"><path d="m0 0c-0.1 5-1.3 9.5-3.1 13.6-2.8 6.1-7.1 11.1-12.1 14.5-5 3.4-10.8 5.4-16.4 5.4-0.2 0-0.4 0-0.6 0-0.9 0-1.6-0.8-1.5-1.6s0.8-1.6 1.6-1.5c0.2 0 0.3 0 0.5 0 3.2 0 6.6-0.8 9.9-2.2 4.9-2.1 9.4-5.8 12.8-10.6s5.6-10.8 5.8-17.6c0-0.9 0.8-1.6 1.6-1.5 0.9 0 1.6 0.8 1.5 1.6" fill="#fff"/></g></g></g></svg>