<svg xmlns="http://www.w3.org/2000/svg" height="64" width="64" version="1.1" viewBox="0 0 64 64"><g transform="translate(0 -988.36)"><g transform="matrix(.44474 0 0 -.44474 -90.198 1232.1)"><g transform="translate(301.37 437.15)"><path d="m0 0c-2.2 0-4.2 0.3-6 0.9-3.2 1-5.9 2.6-8.2 4.7-1.7 1.5-3.2 3.3-4.5 5-1.9 2.6-3.3 5.2-4.2 7.2-0.4 1-0.8 1.8-1 2.3-0.1 0.3-0.2 0.5-0.2 0.6l0 0.1 0 0 0 0v0 0h0l-11.6 37.2c3 0.7 6.1 1.1 9.1 1.1 7.7 0 15.2-2.3 21.6-6.5 6.4-4.2 11.6-10.2 14.7-17.8 0.8-2 1.4-4 1.9-6-5.4-0.3-10-4.4-10.9-9.9-0.9-6.2 3.2-11.9 9.2-13.1-0.6-1.6-1.3-3.1-2.1-4.6-2.9-0.9-5.5-1.2-7.8-1.2m-11.7-16.3c-4.9-2-9.9-3-14.9-3-3.2 0-6.4 0.4-9.5 1.2 1 0.6 2 1.3 2.9 2 2.2 1.7 3.9 3.6 5.3 5.7 2.1 3 3.5 6.3 4.3 9.5 0.5 2 0.8 4 0.9 6 1.9-2.3 4.1-4.5 6.8-6.4 2.1-1.5 4.4-2.7 7.1-3.6 2.6-0.9 5.6-1.4 8.7-1.4 0.8 0 1.7 0 2.6 0.1-3.8-4.2-8.6-7.7-14.2-10m-32.6 1.3c-1.3 0.7-2.6 1.4-3.9 2.2l-0.1 0.1 0.1 0.1c4.6 4.5 4.7 11.9 0.2 16.5-4 4.1-10.4 4.6-15 1.4-1.9 4.8-2.9 9.8-2.9 14.6 0 7.7 2.3 15.2 6.5 21.6 4.1 6.3 10.1 11.4 17.6 14.6l11.6-37.1 0 0 0 0c0-0.2 0.4-1.4 0.7-3.2 0.3-1.9 0.7-4.5 0.7-7.3 0-2.2-0.2-4.5-0.7-6.8-0.4-1.7-0.9-3.5-1.7-5.1-1.1-2.5-2.8-4.8-5.1-6.8-2-1.8-4.7-3.4-8-4.6m59.8 52.3c-3.6 8.8-9.7 15.9-17.1 20.7-4.6 3-9.7 5.2-15.1 6.4 0 0.2 0 0.4 0 0.7 0 14.4-11.5 26.1-25.8 26.4l0 8.8c0 1.8-1.4 3.2-3.2 3.2-1.8 0-3.2-1.4-3.2-3.2l0-9.4c-3.3-0.7-6.3-2.1-9-3.9l-7.3 7.1c-1.3 1.2-3.3 1.2-4.5-0.1-1.2-1.3-1.2-3.3 0.1-4.5l6.9-6.7c-4.2-4.7-6.8-10.9-6.8-17.7 0-6.7 2.5-12.8 6.6-17.4-0.6-0.9-1.3-1.7-1.9-2.6-4.9-7.4-7.5-16.1-7.5-25.1 0-5.8 1.1-11.7 3.4-17.3 3.6-8.8 9.7-15.9 17.1-20.7 7.4-4.9 16.1-7.5 25.1-7.5 5.8 0 11.7 1.1 17.3 3.4 8.8 3.6 15.9 9.7 20.7 17.1 4.9 7.4 7.5 16.1 7.5 25.1 0 5.8-1.1 11.7-3.4 17.3" fill="#1f1f1f"/></g><g transform="translate(251.08 521.3)"><path d="m0 0c-2-0.8-3.8-1.8-5.4-3.1-2.3-1.9-4-4.4-5.2-7.1s-1.7-5.7-1.7-8.7c0-3.1 0.6-6.3 1.7-9.4 0.3-0.8 1.2-1.2 2-0.9 0.8 0.3 1.2 1.2 0.9 2-1 2.7-1.5 5.5-1.5 8.3 0 3.5 0.9 6.9 2.5 9.6 0.8 1.4 1.9 2.6 3.2 3.7 1.3 1.1 2.7 1.9 4.4 2.6 0.8 0.3 1.2 1.2 0.9 2-0.3 0.8-1.2 1.2-2 0.9" fill="#fff"/></g><g transform="translate(298.32 476.69)"><path d="m0 0c0 6.4-5.2 11.7-11.7 11.7s-11.7-5.2-11.7-11.7 5.2-11.7 11.7-11.7 11.7 5.2 11.7 11.7" fill="#1f1f1f"/></g><g transform="translate(264.34 466.28)"><path d="m0 0c0 6.4-5.2 11.7-11.7 11.7-6.4 0-11.7-5.2-11.7-11.7s5.2-11.7 11.7-11.7c6.4 0 11.7 5.2 11.7 11.7" fill="#1f1f1f"/></g></g></g></svg>