<svg xmlns:svg="http://www.w3.org/2000/svg" xmlns="http://www.w3.org/2000/svg" width="64" height="64" viewBox="0 0 64 64" version="1.1"><style>.s0{fill:#1f1f1f;}</style><g transform="translate(0,-988.3622)"><g transform="matrix(1.25,0,0,-1.25,80.459662,1098.2927)"><path d="M0 0C0 0 0 0.1 0 0.1L0 0Z" fill="#1f1f1f"/></g><g transform="matrix(0.49992157,0,0,-0.49992157,-190.65814,1171.821)"><g transform="translate(483.1758,315.5879)"><path d="m0 0c-2.2 0-4-1.8-4-4 0-5.6-0.9-11-2.6-16-2.5-7.5-6.8-14-12.3-18.5-2.8-2.3-5.9-4.1-9.3-5.3-3.4-1.2-7.1-1.9-11.2-1.9-2.2 0-4-1.8-4-4 0-2.2 1.8-4 4-4 6.6 0 12.7 1.5 18.1 4.2 4 2 7.6 4.7 10.7 7.8 4.7 4.7 8.3 10.6 10.8 17 2.5 6.4 3.8 13.5 3.8 20.7C4-1.8 2.2 0 0 0" fill="#1f1f1f"/></g><g transform="translate(491.502,281.9805)"><path d="m0 0c-3.3-7.8-8.8-14.4-15.8-19.1-6.9-4.7-15.3-7.4-24.3-7.4-5.4 0-10.6 1-15.4 2.8-7.2 2.7-13.5 7.3-18.3 13.2-2.5 3-4.5 6.4-6.1 10 0.8-0.4 1.6-0.8 2.4-1.1 4.7-2 9.8-3.2 15.2-3.2 5.2 0 10.3 1.1 14.8 3 6.8 2.9 12.6 7.7 16.7 13.8 4.1 6.1 6.5 13.4 6.5 21.3 0 7.5-2.2 14.5-5.9 20.4-1.5 2.4-3.3 4.6-5.3 6.6 4.3-0.5 8.4-1.5 12.3-3.2 7.8-3.3 14.4-8.8 19.1-15.8C0.7 34.3 3.4 26 3.4 16.9 3.4 10.9 2.2 5.2 0 0m7.3 36.9c-3.9 9.2-10.4 17.1-18.6 22.6-8.2 5.5-18.1 8.8-28.8 8.8-2.6 0-5.2-0.2-7.8-0.6-1.7-0.3-3.1-1.6-3.3-3.3-0.3-1.7 0.6-3.4 2.2-4.2 5-2.5 9.2-6.3 12.2-10.9 3-4.7 4.7-10.2 4.7-16.1C-32.2 29.1-33 25.1-34.5 21.5-36.8 16.1-40.7 11.5-45.5 8.2-50.3 5-56.1 3.1-62.3 3.1c-4.3 0-8.4 0.9-12.1 2.5-3.7 1.6-7 3.9-9.7 6.8-1.2 1.3-3.1 1.6-4.6 0.8-1.6-0.8-2.4-2.4-2.2-4.2 1.9-12.3 8.2-23.2 17.2-31 4.5-3.9 9.7-7 15.4-9.2 5.7-2.2 11.8-3.3 18.3-3.3 7.1 0 13.9 1.4 20 4 9.2 3.9 17.1 10.4 22.6 18.6 5.5 8.2 8.8 18.1 8.8 28.8 0 7.1-1.4 13.9-4 20" fill="#1f1f1f"/></g><g transform="translate(431.416,321.3711)"><path d="m0 0c0 0.1 0.1 0.1 0.1 0.2 1.7-2.6 3.9-4.8 6.5-6.6 0.1 0 0.1-0.1 0.2-0.1-2.6-1.7-4.8-3.9-6.6-6.5 0-0.1-0.1-0.1-0.1-0.2-1.7 2.6-3.9 4.8-6.5 6.6-0.1 0-0.1 0.1-0.2 0.1 2.6 1.7 4.8 3.9 6.6 6.5m-19.7-10.5c2.2 0 4.3-0.4 6.2-1.2 2.8-1.2 5.3-3.2 7-5.7 1.7-2.5 2.7-5.6 2.7-8.9 0-1 0.4-2.1 1.2-2.8 0.7-0.7 1.8-1.2 2.8-1.2 1 0 2.1 0.4 2.8 1.2 0.7 0.7 1.2 1.8 1.2 2.8 0 2.2 0.4 4.3 1.2 6.2 1.2 2.8 3.2 5.3 5.7 7 2.5 1.7 5.6 2.7 8.9 2.7 1 0 2.1 0.4 2.8 1.2 0.7 0.7 1.2 1.8 1.2 2.8 0 1-0.4 2.1-1.2 2.8-0.7 0.7-1.8 1.2-2.8 1.2-2.2 0-4.3 0.4-6.2 1.2-2.8 1.2-5.3 3.2-7 5.7-1.7 2.5-2.7 5.6-2.7 8.9 0 1-0.4 2.1-1.2 2.8-0.7 0.7-1.8 1.2-2.8 1.2-1 0-2.1-0.4-2.8-1.2-0.7-0.7-1.2-1.8-1.2-2.8 0-2.2-0.4-4.3-1.2-6.2-1.2-2.8-3.2-5.3-5.7-7-2.5-1.7-5.6-2.7-8.9-2.7-1 0-2.1-0.4-2.8-1.2-0.7-0.7-1.2-1.8-1.2-2.8 0-1 0.4-2.1 1.2-2.8 0.7-0.7 1.8-1.2 2.8-1.2" fill="#1f1f1f"/></g><g transform="translate(431.5166,342.5918)"><path d="m0 0c2.2 0 4 1.8 4 4l0 7.9c0 2.2-1.8 4-4 4-2.2 0-4-1.8-4-4l0-7.9C-4 1.8-2.2 0 0 0" fill="#1f1f1f"/></g><g transform="translate(403.7793,314.8535)"><path d="m0 0c0 2.2-1.8 4-4 4l-7.9 0c-2.2 0-4-1.8-4-4 0-2.2 1.8-4 4-4l7.9 0C-1.8-4 0-2.2 0 0" fill="#1f1f1f"/></g></g></g></svg>