<svg xmlns:svg="http://www.w3.org/2000/svg" xmlns="http://www.w3.org/2000/svg" width="64" height="64" viewBox="0 0 64 64" version="1.1"><style>.s0{fill:#1f1f1f;}</style><g transform="translate(0,-988.3622)"><g transform="matrix(1.25,0,0,-1.25,80.459662,1098.2927)"><path d="M0 0C0 0 0 0.1 0 0.1L0 0Z" fill="#1f1f1f"/></g><g transform="matrix(0.56052297,0,0,-0.46431212,44.225297,1031.7288)"><path d="m0 0c-0.8-0.8-2.8-2.7-6.2-6.1-1.3-1.2-1.6-3.2-0.8-4.8l5.9-12-5.4-2.6c-3.9 7.9-5 9.9-5.2 10.3-0.7 1.4-2.1 2.3-3.7 2.3-6.3 0-10.8 0.8-14.1 1.9-2.4 0.8-4.1 1.8-5.3 2.7-0.9 0.7-1.5 1.4-1.9 2-0.7 0.9-1 1.7-1.1 2.2-0.1 0.3-0.1 0.4-0.1 0.5l0 0 0 0 0 1.2c0.6-0.3 1.3-0.6 2-0.9 0.8-0.2 1.7-0.4 2.7-0.4 1.5 0 3.2 0.4 4.8 1.1 1.1 0.5 2.1 1.1 2.9 1.9 1.3 1.1 2.2 2.5 2.7 3.8 0.5 1.3 0.7 2.6 0.7 3.8 0 0.3 0 0.6 0 0.9 0.7 0.2 1.3 0.4 2 0.7 1.1 0.5 2.1 1.1 2.9 1.9 1.3 1.1 2.2 2.5 2.7 3.8 0.5 1.3 0.7 2.6 0.7 3.8 0 0.5 0 1-0.1 1.5l7.7-4.8 4.3 7-19.3 12-0.1 0 0 0 0 0c-0.1 0-0.2 0.1-0.4 0.3-0.3 0.2-0.6 0.6-0.8 0.9-0.1 0.2-0.2 0.3-0.2 0.4 0 0.1-0.1 0.3-0.1 0.4 0 0.1 0 0.3 0.1 0.5 0.1 0.2 0.2 0.5 0.4 0.9l0 0c0.2 0.4 0.4 0.7 0.6 0.8 0.3 0.3 0.4 0.3 0.6 0.4 0.2 0.1 0.4 0.1 0.6 0.1 0.4 0 0.9-0.1 1.2-0.2 0.2-0.1 0.3-0.1 0.4-0.2l0.1 0 0 0 0 0 0 0 0 0 0 0 0.1 0 20-10.3C1.3 27.7 1.4 27.6 1.5 27.5 2.1 26.9 3 25.9 3.8 24.3 4.5 22.7 5.1 20.6 5.1 17.5 5.1 15.4 4.8 12.9 3.9 9.9 3.1 7.1 1.9 3.8 0 0m-48.5 26.1c0 0.1-0.1 0.2-0.1 0.4-0.1 0.3-0.1 0.6-0.1 0.9 0 0.2 0 0.4 0.1 0.5 0.1 0.2 0.1 0.4 0.3 0.6 0.2 0.2 0.5 0.5 1.2 0.8 0.7 0.3 1.1 0.3 1.3 0.4 0.1 0 0.2 0 0.4 0 0.2 0 0.4-0.1 0.6-0.3 0 0 0.1-0.1 0.1-0.1l10.6-15.7c0.1-0.2 0.2-0.4 0.4-0.7 0.3-0.4 0.6-0.9 1.1-1.5 0.1-0.2 0.3-0.3 0.5-0.5l1.8-2.7c0-0.1 0.1-0.2 0.1-0.3 0.1-0.3 0.1-0.6 0.1-0.9 0-0.2 0-0.4-0.1-0.5-0.1-0.2-0.1-0.4-0.3-0.6-0.2-0.2-0.5-0.5-1.1-0.8-0.7-0.3-1.1-0.3-1.3-0.4-0.1 0-0.2 0-0.4 0-0.2 0-0.4 0.1-0.6 0.3-0.3 0.2-0.6 0.6-0.9 0.9-0.1 0.2-0.2 0.3-0.2 0.4l0 0.1 0 0c-0.1 0.2-0.2 0.3-0.3 0.5L-48.5 26.1Zm8.1 12.8c0.1 0.2 0.1 0.4 0.3 0.6 0.2 0.2 0.5 0.5 1.2 0.8l0 0c0.7 0.3 1.1 0.3 1.3 0.4 0.1 0 0.3 0 0.4 0 0.2 0 0.4-0.1 0.6-0.3 0.3-0.2 0.6-0.6 0.9-0.9 0.1-0.2 0.2-0.3 0.2-0.4l0-0.1 0 0c0.1-0.2 0.2-0.3 0.3-0.5l13-19.3c0-0.1 0.1-0.2 0.1-0.3 0.1-0.3 0.1-0.6 0.1-0.9 0-0.2 0-0.4-0.1-0.5-0.1-0.2-0.1-0.4-0.3-0.6-0.2-0.2-0.5-0.5-1.2-0.8-0.7-0.3-1.1-0.3-1.3-0.4-0.1 0-0.2 0-0.4 0-0.2 0-0.4 0.1-0.6 0.3 0 0-0.1 0.1-0.1 0.1l-10.6 15.7c-0.1 0.2-0.2 0.4-0.4 0.7-0.3 0.4-0.6 0.9-1.1 1.5-0.1 0.2-0.3 0.3-0.5 0.5l-1.8 2.6c0 0.1-0.1 0.2-0.1 0.4-0.1 0.3-0.1 0.6-0.1 0.9 0 0.2 0 0.4 0.1 0.5m0.6 29.7c0.1 0.2 0.1 0.4 0.3 0.6 0.2 0.2 0.4 0.5 1.1 0.8 0.4 0.2 0.6 0.3 0.9 0.4 0.2 0.1 0.4 0.1 0.5 0.1 0.2 0 0.4 0 0.6-0.2 0.2-0.1 0.4-0.2 0.5-0.4 0.3-0.2 0.5-0.5 0.7-0.7 0.1-0.1 0.1-0.2 0.1-0.2l10.5-23c-0.7-0.3-1.4-0.7-2-1.2-0.7-0.5-1.3-1.1-1.9-1.8-0.1 0.2-0.2 0.4-0.4 0.6-0.2 0.3-0.4 0.5-0.6 0.8l-10.1 22-0.1 0.2 0 0c0 0-0.1 0.2-0.2 0.6-0.1 0.3-0.2 0.7-0.2 1.1 0 0.2 0 0.3 0.1 0.5m33.4 6.2c0 0.1 0.1 0.1 0.1 0.2 0.2 0.3 0.6 0.8 0.9 1 0.2 0.1 0.3 0.2 0.5 0.3 0.1 0.1 0.3 0.1 0.5 0.1 0.3 0 0.6 0 1.3-0.3 0.5-0.2 0.8-0.4 1-0.6 0.1-0.1 0.2-0.2 0.3-0.3 0.1-0.1 0.2-0.3 0.2-0.5 0-0.2 0.1-0.4 0.1-0.7 0-0.4-0.1-0.8-0.1-1 0-0.1-0.1-0.2-0.1-0.3l0 0 0 0c-0.1-0.1-0.1-0.3-0.2-0.5l-7.6-29.8-4.5 2.4 7.6 30zM11.9 7.7c1 3.6 1.4 6.9 1.5 9.8 0 3.1-0.4 5.8-1.2 8-1.1 3.4-2.9 5.8-4.4 7.4C6.3 34.5 5 35.2 4.7 35.4L4.5 35.5-1.1 38.1-2.1 38.6 6 70.2c0.1 0.2 0.2 0.6 0.3 1 0.2 0.7 0.4 1.8 0.4 3 0 0.8-0.1 1.6-0.3 2.5-0.2 0.7-0.4 1.4-0.7 2.1-0.5 1-1.2 2.1-2.2 3-1 0.9-2.2 1.6-3.5 2.2-1.5 0.6-2.9 0.9-4.3 0.9-0.9 0-1.7-0.1-2.5-0.3-1.4-0.4-2.5-1-3.4-1.7-1.4-1-2.2-2.2-2.8-3.1-0.6-0.9-0.9-1.6-0.9-1.8-0.1-0.2-0.1-0.4-0.2-0.5l-5.5-21.8-7.8 17.1-0.1 0.2c-0.1 0.1-0.3 0.5-0.6 1-0.5 0.8-1.4 1.9-2.8 2.9-0.7 0.5-1.5 1-2.5 1.4-1 0.4-2.1 0.6-3.3 0.6-0.8 0-1.7-0.1-2.6-0.3-0.9-0.2-1.8-0.6-2.6-1-1-0.5-1.9-1.2-2.7-1.9-1.1-1.1-2-2.4-2.5-3.6-0.5-1.3-0.7-2.5-0.7-3.6 0-1.6 0.3-2.8 0.6-3.7 0.2-0.7 0.5-1.2 0.6-1.5l6.6-14.4c-0.7-0.2-1.4-0.4-2.1-0.8-1.1-0.5-2.1-1.1-2.9-1.9-1.3-1.1-2.2-2.5-2.7-3.8-0.5-1.3-0.7-2.6-0.7-3.7 0-0.3 0-0.6 0-0.9-0.7-0.2-1.3-0.4-2-0.7-1.1-0.5-2.1-1.1-2.9-1.9-1.3-1.1-2.2-2.5-2.7-3.8-0.5-1.3-0.7-2.6-0.7-3.7 0-1.4 0.2-2.5 0.5-3.3 0.2-0.8 0.5-1.4 0.5-1.5 0.1-0.2 0.2-0.4 0.3-0.6l9.5-14.1 0-11.5c0-0.3 0-1.6 0.6-3.4 0.4-1.3 1.2-2.9 2.5-4.6 1-1.2 2.2-2.4 3.7-3.6 2.3-1.7 5.4-3.2 9.3-4.2 3.3-0.9 7.3-1.5 12-1.6 0.7-1.4 2-3.9 4.4-8.7l2.8-6 20.4 9.6-2.6 5.6 0 0-0.4 0.7-0.2 0.5 0 0-4.5 9.2c5.8 5.4 9.1 14.7 10 17.9" fill="#1f1f1f"/></g></g></svg>