<svg xmlns:svg="http://www.w3.org/2000/svg" xmlns="http://www.w3.org/2000/svg" width="64" height="64" viewBox="0 0 64 64" version="1.1"><style>.s0{fill:#1f1f1f;}</style><g transform="translate(0,-988.3622)"><g transform="matrix(1.25,0,0,-1.25,80.459662,1098.2927)"><path d="M0 0C0 0 0 0.1 0 0.1L0 0Z" fill="#1f1f1f"/></g><g transform="matrix(0.42819225,0,0,-0.42819225,-12.588473,1076.1565)"><g transform="translate(104.4224,69.6904)"><path d="M0 0 0-0.2 0-0.2 0 0Zm0 0.5-0.2 0c-1.9 0-3.8 0.3-5.7 0.8-3.1 0.8-6 2.4-8.6 4.5-4 3.2-7.4 7.6-9.9 13.1-2.2 4.9-3.6 10.4-3.9 16.4 0.2 0 0.3 0 0.5 0l0 0 0 0 0 0 0 0c0.6 0 1.2 0.1 1.7 0.2 0.9 0.3 1.7 0.7 2.2 1.3l0 0c0.4 0.4 0.7 0.9 0.9 1.3 0.3 0.6 0.5 1.2 0.5 1.7l0 0c0.1 0.4 0.1 0.8 0.1 0.8l0 0c0 1-0.8 1.9-1.9 1.9-0.9 0-1.6-0.6-1.8-1.4l-0.1 0 0-0.5c0 0 0-0.2 0-0.4 0-0.1-0.1-0.3-0.2-0.5-0.1-0.1-0.1-0.2-0.2-0.3-0.1-0.1-0.2-0.2-0.4-0.3-0.2-0.1-0.4-0.2-0.9-0.2-0.3 0-0.4 0-0.6 0.1 0.2 8.5 2.6 16.3 6.5 22.4 2 3.2 4.4 5.9 7.1 8 2.7 2.1 5.6 3.6 8.6 4.5 1.8 0.5 3.6 0.8 5.5 0.8l0.2 0c1.9 0 3.8-0.3 5.6-0.8 3.1-0.8 6-2.3 8.7-4.4 4-3.1 7.5-7.6 9.9-13.1 2.3-5.1 3.7-11 3.9-17.4-0.1 0-0.2 0-0.3 0.1l0 0c-0.3 0.1-0.4 0.1-0.5 0.3-0.1 0.1-0.2 0.2-0.2 0.3l0 0c-0.1 0.2-0.2 0.4-0.2 0.6l0 0.2 0 0 0 0.5-0.1 0c-0.1 0.3-0.3 0.6-0.5 0.8-0.3 0.3-0.8 0.5-1.3 0.5-0.5 0-1-0.2-1.3-0.5-0.3-0.3-0.6-0.8-0.6-1.3 0-0.1 0-0.4 0.1-0.8 0.1-0.3 0.2-0.7 0.3-1.1l0 0c0.1-0.3 0.3-0.7 0.6-1 0.4-0.5 1-1 1.7-1.4 0.7-0.3 1.5-0.5 2.3-0.5C27.3 27.2 24.9 19.6 21.2 13.7 19.1 10.5 16.7 7.8 14.1 5.7 11.4 3.6 8.5 2.1 5.4 1.2 3.7 0.8 1.9 0.5 0 0.5m34.4 37.3 0 0c-0.1 10.3-2.9 19.8-7.8 27.2-2.4 3.7-5.3 7-8.6 9.6-1.1 0.8-2.1 1.6-3.3 2.3l10.9 8.1c2.2 1.6 1.5 6.2-1.5 10.2-0.8 1.1-1.7 2-2.6 2.7l2.6 5.4c1.7 3.5-0.6 8.1-5.1 10.3-3.7 1.8-7.7 1.5-10-0.6l0 5.4c0 5-4.1 9.1-9.1 9.1-5 0-9.1-4.1-9.1-9.1l0-5.4c-2.3 2.1-6.3 2.4-10 0.6-4.5-2.2-6.8-6.8-5.1-10.3l2.6-5.4c-0.9-0.7-1.8-1.7-2.6-2.7-3-4-3.6-8.6-1.5-10.2l10.5-7.8c-1.3-0.8-2.6-1.7-3.8-2.6-4.9-3.9-8.9-9.3-11.7-15.6-2.8-6.3-4.4-13.6-4.4-21.3 0-0.1 0-0.3 0-0.4 0.1-10.3 2.9-19.7 7.7-27.2 2.4-3.7 5.3-7 8.6-9.6 3.3-2.6 7-4.6 11-5.6 2.4-0.7 4.9-1 7.4-1l0.2 0 0 0 0 0c2.4 0 4.8 0.4 7.1 1 4 1.1 7.7 3 11 5.7 4.9 3.9 9 9.3 11.8 15.6 2.8 6.3 4.4 13.6 4.4 21.3 0 0.1 0 0.3 0 0.4" fill="#1f1f1f"/></g><g transform="translate(102.7827,110.5391)"><path d="m0 0-0.1 0c-0.1 0.3-0.3 0.6-0.5 0.8-0.3 0.3-0.8 0.5-1.3 0.5-0.5 0-1-0.2-1.3-0.5-0.3-0.3-0.6-0.8-0.6-1.3 0-0.1 0-0.4 0.1-0.8 0.1-0.3 0.2-0.7 0.3-1.1l0 0c0.1-0.3 0.3-0.7 0.6-1l0 0c0.4-0.5 1-1 1.7-1.4 0.7-0.4 1.6-0.6 2.6-0.6l0 0 0 0 0 0c0.6 0 1.1 0.1 1.7 0.2 0.9 0.2 1.6 0.7 2.2 1.2l0 0c0.4 0.4 0.7 0.8 0.9 1.2 0.3 0.6 0.5 1.1 0.5 1.5l0 0c0.1 0.4 0.1 0.7 0.1 0.8C7 0 6.7 0.5 6.4 0.8 6.1 1.1 5.6 1.3 5.1 1.3 4.6 1.3 4.1 1.1 3.8 0.8 3.5 0.6 3.4 0.3 3.3 0L3.2 0l0-0.5C3.2-0.5 3.2-0.6 3.1-0.8 3.1-0.9 3.1-1.1 3-1.2L3-1.2 3-1.2C3-1.3 2.9-1.4 2.8-1.5 2.7-1.6 2.6-1.6 2.5-1.7 2.3-1.8 2-1.9 1.6-1.9c-0.3 0-0.5 0-0.6 0.1l0 0c-0.3 0.1-0.4 0.2-0.5 0.3-0.1 0.1-0.2 0.2-0.2 0.3L0.2-1.2C0.1-1.1 0.1-0.8 0-0.7L0-0.7 0-0.5 0-0.5 0 0Z" fill="#1f1f1f"/></g><g transform="translate(107.8618,80.0146)"><path d="m0 0c-0.5 0-1-0.2-1.3-0.5-0.2-0.2-0.4-0.5-0.5-0.8l-0.1 0 0-0.4c0 0 0-0.2 0-0.3 0-0.1-0.1-0.3-0.1-0.4l0 0c-0.1-0.1-0.1-0.2-0.2-0.3-0.1-0.1-0.2-0.2-0.4-0.3l0 0c-0.2-0.1-0.4-0.1-0.9-0.1-0.3 0-0.5 0-0.6 0.1l0 0c-0.3 0.1-0.4 0.1-0.5 0.3-0.1 0.1-0.2 0.2-0.2 0.3l0 0c-0.1 0.2-0.2 0.4-0.2 0.6l0 0.2 0 0 0 0.5-0.1 0c-0.1 0.3-0.3 0.6-0.5 0.8C-6-0.2-6.5 0-7 0c-0.5 0-1-0.2-1.3-0.5-0.3-0.3-0.6-0.8-0.6-1.3 0-0.1 0-0.4 0.1-0.8l0 0c0.1-0.3 0.2-0.7 0.3-1.1l0 0c0.1-0.3 0.3-0.7 0.6-1 0.4-0.5 1-1 1.7-1.4 0.7-0.4 1.6-0.6 2.6-0.6l0 0 0 0 0 0c0.6 0 1.1 0.1 1.7 0.2 0.9 0.2 1.6 0.7 2.2 1.2l0 0c0.4 0.4 0.7 0.8 0.9 1.2 0.3 0.6 0.5 1.1 0.5 1.5l0 0 0 0c0.1 0.4 0.1 0.7 0.1 0.8l0 0 0 0c0 0.5-0.2 0.9-0.6 1.3C1-0.2 0.5 0 0 0" fill="#1f1f1f"/></g><g transform="translate(108.2261,137.041)"><path d="m0 0 0 0 0 0L0 0Z" fill="#1f1f1f"/></g><g transform="translate(107.8618,142.3037)"><path d="m0 0c-0.5 0-1-0.2-1.3-0.5-0.2-0.2-0.4-0.5-0.5-0.8l-0.1 0 0-0.4c0 0 0-0.2 0-0.3 0-0.1-0.1-0.3-0.1-0.4l0 0c-0.1-0.1-0.1-0.2-0.2-0.3-0.1-0.1-0.2-0.2-0.4-0.3-0.2-0.1-0.4-0.1-0.9-0.1-0.3 0-0.5 0-0.6 0.1l0 0c-0.3 0.1-0.4 0.1-0.5 0.3-0.1 0.1-0.2 0.2-0.2 0.3l0 0c-0.1 0.2-0.2 0.4-0.2 0.6l0 0.2 0 0 0 0.5-0.1 0c-0.1 0.3-0.3 0.6-0.5 0.8C-6-0.2-6.5 0-7 0-7.5 0-7.9-0.2-8.3-0.5-8.6-0.8-8.9-1.3-8.8-1.7c0-0.1 0-0.4 0.1-0.8l0 0c0.1-0.3 0.2-0.7 0.3-1.1l0 0c0.1-0.3 0.3-0.7 0.6-1 0.4-0.5 1-1 1.7-1.4 0.7-0.4 1.6-0.6 2.6-0.6l0 0 0 0 0 0c0.6 0 1.1 0.1 1.7 0.2 0.9 0.2 1.6 0.7 2.2 1.2 0.4 0.4 0.7 0.8 0.9 1.2 0.3 0.6 0.5 1.1 0.5 1.5l0 0c0.1 0.4 0.1 0.7 0.1 0.8l0 0 0 0c0 0.5-0.2 0.9-0.6 1.3C1-0.2 0.5 0 0 0" fill="#1f1f1f"/></g><g transform="translate(93.6802,128.5684)"><path d="m0 0c-0.9 0-1.6-0.6-1.8-1.4l-0.1 0 0-0.4c0 0 0-0.2 0-0.4 0-0.2-0.1-0.3-0.2-0.5-0.1-0.1-0.1-0.2-0.2-0.3-0.1-0.1-0.2-0.2-0.4-0.3-0.2-0.1-0.4-0.2-0.9-0.2-0.3 0-0.5 0-0.6 0.1-0.3 0.1-0.4 0.2-0.5 0.3-0.1 0.1-0.2 0.2-0.2 0.3l0 0c-0.1 0.2-0.2 0.5-0.2 0.6 0 0.1 0 0.2 0 0.2l0 0 0 0.5-0.1 0C-5.4-0.6-6.1 0-7 0c-1 0-1.9-0.8-1.9-1.9 0-0.1 0-0.4 0.1-0.9 0.1-0.3 0.2-0.8 0.3-1.2l0 0c0.1-0.4 0.3-0.7 0.6-1.1 0.4-0.6 1-1.1 1.7-1.5 0.7-0.4 1.6-0.6 2.6-0.6l0 0 0 0 0 0 0 0c0.6 0 1.2 0.1 1.7 0.2 0.9 0.3 1.7 0.7 2.2 1.3L0.4-5.7c0.4 0.4 0.7 0.9 0.9 1.3 0.3 0.6 0.5 1.2 0.5 1.7l0 0c0.1 0.4 0.1 0.8 0.1 0.8l0 0C1.9-0.8 1 0 0 0" fill="#1f1f1f"/></g><g transform="translate(113.3735,124.583)"><path d="M0 0 0 0C0.1-0.4 0.3-0.7 0.6-1.1 1-1.7 1.5-2.2 2.3-2.6 3-3 3.9-3.3 4.9-3.3l0 0 0 0 0 0 0 0c0.6 0 1.2 0.1 1.7 0.2 0.9 0.3 1.7 0.7 2.2 1.3L8.8-1.7c0.4 0.4 0.7 0.9 0.9 1.3 0.3 0.6 0.5 1.2 0.5 1.7L10.2 1.3c0.1 0.4 0.1 0.8 0.1 0.8l0 0c0 1-0.8 1.9-1.9 1.9C7.6 4 6.8 3.4 6.6 2.6l-0.1 0 0-0.4C6.5 2.1 6.5 2 6.5 1.8 6.5 1.6 6.4 1.4 6.3 1.3 6.3 1.2 6.2 1.1 6.2 1 6.1 0.8 6 0.7 5.8 0.7 5.6 0.6 5.4 0.5 4.9 0.5 4.7 0.5 4.5 0.5 4.3 0.6 4 0.7 3.9 0.7 3.8 0.9 3.7 1 3.6 1.1 3.6 1.2L3.6 1.2C3.5 1.4 3.4 1.7 3.4 1.9 3.4 2 3.4 2 3.4 2.1l0 0 0 0 0 0 0 0 0 0.5-0.1 0c-0.2 0.8-0.9 1.4-1.8 1.4-1 0-1.9-0.8-1.9-1.9 0-0.1 0-0.4 0.1-0.9C-0.3 0.9-0.2 0.5 0 0" fill="#1f1f1f"/></g><g transform="translate(92.7778,94.2754)"><path d="m0 0c-0.9 0-1.6-0.6-1.8-1.4l-0.1 0 0-0.4c0 0 0-0.2 0-0.4 0-0.2-0.1-0.3-0.2-0.5-0.1-0.1-0.1-0.2-0.2-0.3-0.1-0.1-0.2-0.2-0.4-0.3-0.2-0.1-0.4-0.2-0.9-0.2-0.3 0-0.5 0-0.6 0.1-0.3 0.1-0.4 0.2-0.5 0.3-0.1 0.1-0.2 0.2-0.2 0.3l0 0c-0.1 0.2-0.2 0.5-0.2 0.6 0 0.1 0 0.2 0 0.2l0 0 0 0.5-0.1 0C-5.4-0.6-6.1 0-7 0c-1 0-1.9-0.8-1.9-1.9 0-0.1 0-0.4 0.1-0.9 0.1-0.3 0.2-0.8 0.3-1.2l0 0c0.1-0.4 0.3-0.7 0.6-1.1 0.4-0.6 1-1.1 1.7-1.5 0.7-0.4 1.6-0.6 2.6-0.6l0 0 0 0 0 0 0 0c0.6 0 1.1 0.1 1.7 0.2 0.9 0.3 1.7 0.7 2.2 1.3L0.4-5.7c0.4 0.4 0.7 0.9 0.9 1.3 0.3 0.6 0.5 1.2 0.5 1.7l0 0c0.1 0.4 0.1 0.8 0.1 0.8l0 0C1.9-0.8 1 0 0 0" fill="#1f1f1f"/></g><g transform="translate(113.3735,90.29)"><path d="m0 0 0 0c0.1-0.4 0.3-0.7 0.6-1.1 0.4-0.6 1-1.1 1.7-1.5 0.7-0.4 1.6-0.6 2.6-0.6l0 0 0 0 0 0 0 0c0.6 0 1.2 0.1 1.7 0.2 0.9 0.3 1.7 0.7 2.2 1.3L8.8-1.7c0.4 0.4 0.7 0.9 0.9 1.3 0.3 0.6 0.5 1.2 0.5 1.7L10.2 1.3c0.1 0.4 0.1 0.8 0.1 0.8l0 0C10.3 3.1 9.5 4 8.4 4 7.6 4 6.8 3.4 6.6 2.6l-0.1 0 0-0.4C6.5 2.1 6.5 2 6.5 1.8 6.5 1.6 6.4 1.4 6.3 1.3 6.3 1.2 6.2 1.1 6.2 1 6.1 0.8 6 0.8 5.8 0.7 5.6 0.6 5.4 0.5 4.9 0.5 4.7 0.5 4.5 0.5 4.3 0.6 4 0.7 3.9 0.7 3.8 0.9 3.7 1 3.6 1.1 3.6 1.2L3.6 1.2C3.5 1.4 3.4 1.7 3.4 1.9 3.4 2 3.4 2 3.4 2.1l0 0 0 0 0 0 0 0 0 0.5-0.1 0c-0.2 0.8-0.9 1.4-1.8 1.4-1 0-1.9-0.8-1.9-1.9 0-0.1 0-0.4 0.1-0.9C-0.3 0.9-0.2 0.5 0 0" fill="#1f1f1f"/></g></g></g></svg>