<svg xmlns:svg="http://www.w3.org/2000/svg" xmlns="http://www.w3.org/2000/svg" width="64" height="64" viewBox="0 0 64 64" version="1.1"><style>.s0{fill:#1f1f1f;}</style><g transform="translate(0,-988.3622)"><g transform="matrix(1.25,0,0,-1.25,80.459662,1098.2927)"><path d="M0 0C0 0 0 0.1 0 0.1L0 0Z" fill="#1f1f1f"/></g><g transform="matrix(0.51359985,0,0,-0.51359985,-284.38434,1175.9646)"><g transform="translate(635.6553,325.8979)"><path d="m0 0c-0.2 0.4-0.4 0.9-0.7 1.3-0.4 0.7-1.1 1.3-2 1.8-0.9 0.5-1.9 0.7-3.1 0.7-0.7 0-1.4-0.1-2-0.3-1.1-0.3-1.9-0.9-2.5-1.5-0.5-0.5-0.8-1-1-1.5-0.4-0.8-0.5-1.5-0.6-2-0.1-0.5-0.1-0.9-0.1-1 0-1 0.8-1.8 1.8-1.8 1 0 1.8 0.8 1.8 1.8l0 0c0 0 0 0.3 0.1 0.6 0 0.2 0.1 0.5 0.2 0.7 0.1 0.2 0.2 0.4 0.3 0.5 0.2 0.2 0.4 0.4 0.7 0.6 0.3 0.1 0.7 0.3 1.3 0.3 0.4 0 0.7 0 1-0.1 0.4-0.1 0.7-0.3 0.9-0.5 0.2-0.2 0.3-0.4 0.4-0.6 0.2-0.3 0.3-0.7 0.3-1 0-0.1 0-0.3 0-0.3l0-0.1 0 0 0 0c0-1 0.8-1.8 1.8-1.8 1 0 1.8 0.8 1.8 1.8 0 0.1 0 0.5-0.1 1C0.3-1.1 0.2-0.6 0 0" fill="#1f1f1f"/></g><g transform="translate(613.6846,301.0503)"><path d="m0 0c-0.2 0.4-0.4 0.9-0.7 1.3-0.5 0.7-1.1 1.3-2 1.8-0.9 0.5-1.9 0.7-3.1 0.7-0.7 0-1.4-0.1-2-0.3-1.1-0.3-1.9-0.9-2.5-1.5-0.5-0.5-0.8-1-1-1.5-0.4-0.8-0.5-1.5-0.6-2-0.1-0.5-0.1-0.9-0.1-1 0-1 0.8-1.8 1.8-1.8 1 0 1.8 0.8 1.8 1.8l0 0 0 0c0 0 0 0.3 0.1 0.6 0 0.2 0.1 0.5 0.2 0.7 0.1 0.2 0.2 0.4 0.3 0.5 0.2 0.2 0.4 0.4 0.7 0.6 0.3 0.1 0.7 0.3 1.3 0.3 0.4 0 0.7-0.1 1-0.1 0.4-0.1 0.7-0.3 0.9-0.5 0.2-0.2 0.3-0.4 0.4-0.6 0.2-0.3 0.3-0.7 0.3-1 0-0.1 0-0.3 0-0.3l0-0.1 0 0 0 0c0-1 0.8-1.8 1.8-1.8 1 0 1.8 0.8 1.8 1.8 0 0.1 0 0.4-0.1 1C0.3-1.1 0.2-0.6 0 0" fill="#1f1f1f"/></g><g transform="translate(605.0283,331.5337)"><path d="m0 0c-6.1 0-11-4.9-11-11 0-6.1 4.9-11 11-11 6.1 0 11 4.9 11 11C11-4.9 6.1 0 0 0" fill="#1f1f1f"/></g><g transform="translate(635.4668,309.4683)"><path d="m0 0c-4.9 0.6-9.8-2.2-11.6-7-1.8-4.7-0.1-9.8 3.7-12.7l-1.2-3.1c-0.7 0.2-1.4 0.4-2.2 0.4-0.7 0-1.4-0.1-2-0.3-1.1-0.3-1.9-0.9-2.5-1.5-0.5-0.5-0.8-1-1.1-1.5-0.4-0.8-0.5-1.5-0.6-2-0.1-0.5-0.1-0.9-0.1-1 0-1 0.8-1.8 1.8-1.8 1 0 1.8 0.8 1.8 1.8l0 0 0 0c0 0 0 0.3 0.1 0.6 0 0.2 0.1 0.5 0.2 0.7 0.1 0.2 0.2 0.4 0.3 0.5 0.2 0.2 0.4 0.4 0.7 0.6 0.3 0.1 0.7 0.3 1.3 0.3 0.4 0 0.6 0 0.9-0.1l-9-22.4-4.3 10.7c4 3 5.5 8.5 3.3 13.2-2 4.4-6.6 6.9-11.2 6.4l-17.2 43.1c0.7 0.2 1.3 0.4 1.9 0.7 2.1 1 3.6 2.5 4.8 3.8l12.5 0c0.3-0.3 0.6-0.7 0.9-1 1-1 2.3-2 3.8-2.8 1.5-0.8 3.4-1.3 5.5-1.3 2.1 0 3.9 0.5 5.5 1.3 2.1 1 3.6 2.5 4.8 3.8l12.5 0c0.3-0.3 0.6-0.7 0.9-1 1-1 2.3-2 3.8-2.8 0.6-0.3 1.2-0.5 1.9-0.7L0 0Zm25.7 38.7c-0.1 0.8-0.4 1.9-0.8 3-0.3 0.8-0.8 1.7-1.4 2.6-0.9 1.3-2.1 2.5-3.8 3.4-1.7 0.9-3.8 1.4-6.3 1.4l-65.9 0c-0.1 0-0.8 0-2-0.2-0.8-0.1-1.9-0.4-3-0.8-0.8-0.3-1.7-0.8-2.6-1.4-1.3-0.9-2.5-2.1-3.4-3.8-0.9-1.7-1.4-3.8-1.4-6.3 0-3 0.8-5.4 2-7.2 0.9-1.3 2-2.4 3.2-3.1 1-0.6 2-1.1 2.9-1.4l34-85c0.6-1.4 1.9-2.3 3.4-2.3 1.5 0 2.8 0.9 3.4 2.3l34 85c0.2 0.1 0.4 0.1 0.6 0.2 0.8 0.3 1.7 0.8 2.6 1.4 1.3 0.9 2.5 2.1 3.4 3.8 0.9 1.7 1.4 3.8 1.4 6.3 0 0.1 0 0.8-0.2 2" fill="#1f1f1f"/></g></g></g></svg>