<svg xmlns:svg="http://www.w3.org/2000/svg" xmlns="http://www.w3.org/2000/svg" width="64" height="64" viewBox="0 0 64 64" version="1.1"><style>.s0{fill:#1f1f1f;}</style><g transform="translate(0,-988.3622)"><g transform="matrix(1.25,0,0,-1.25,80.459662,1098.2927)"><path d="M0 0C0 0 0 0.1 0 0.1L0 0Z" fill="#1f1f1f"/></g><g transform="matrix(0.43785002,0,0,-0.43785002,-237.72194,1077.415)"><g transform="translate(617.376,129.7627)"><path d="m0 0c-0.3-0.5-0.7-0.8-1.3-1.1-0.4-0.2-0.7-0.2-1.1-0.2-0.6 0-1.1 0.2-1.6 0.5-0.5 0.3-0.8 0.7-1.1 1.3-0.2 0.4-0.2 0.7-0.2 1.1 0 0.6 0.2 1.1 0.5 1.6 0.3 0.5 0.7 0.8 1.3 1.1l0 0c0.4 0.2 0.7 0.2 1.1 0.2 0.6 0 1.1-0.2 1.6-0.5C-0.3 3.7 0 3.3 0.3 2.7 0.4 2.3 0.5 2 0.5 1.6 0.5 1 0.3 0.5 0 0m7.6 5.7 0 0C6.7 7.8 5.3 9.5 3.5 10.6c-1.8 1.2-3.8 1.8-6 1.8-1.4 0-2.8-0.3-4.1-0.8-2.1-0.9-3.8-2.3-4.9-4.1-1.2-1.8-1.8-3.8-1.8-6 0-1.4 0.3-2.8 0.8-4.1 0.9-2.1 2.3-3.8 4.1-4.9 1.8-1.2 3.8-1.8 6-1.8 1.4 0 2.8 0.3 4.1 0.8 2.1 0.9 3.8 2.3 4.9 4.1 1.2 1.8 1.8 3.8 1.8 6 0 1.4-0.3 2.8-0.8 4.1" fill="#1f1f1f"/></g><g transform="translate(575.8857,105.9746)"><path d="m0 0c-0.3-0.5-0.7-0.8-1.3-1.1-0.4-0.2-0.7-0.2-1.1-0.2-0.6 0-1.1 0.2-1.6 0.5-0.5 0.3-0.8 0.7-1.1 1.3-0.2 0.4-0.2 0.7-0.2 1.1 0 0.6 0.2 1.1 0.5 1.6 0.3 0.5 0.7 0.8 1.3 1.1l0 0c0.4 0.2 0.7 0.2 1.1 0.2 0.6 0 1.1-0.2 1.6-0.5C-0.3 3.7 0 3.3 0.3 2.7l0 0C0.4 2.3 0.5 2 0.5 1.6 0.5 1 0.3 0.5 0 0M7.6 5.7C6.7 7.8 5.3 9.5 3.5 10.7c-1.8 1.2-3.8 1.8-6 1.8-1.4 0-2.8-0.3-4.1-0.8l0 0c-2.1-0.9-3.8-2.3-4.9-4.1-1.2-1.8-1.8-3.8-1.8-6 0-1.4 0.3-2.8 0.8-4.1 0.9-2.1 2.3-3.8 4.1-4.9 1.8-1.2 3.8-1.8 6-1.8 1.4 0 2.8 0.3 4.1 0.8 2.1 0.9 3.8 2.3 4.9 4.1 1.2 1.8 1.8 3.8 1.8 6 0 1.4-0.3 2.8-0.8 4.1L7.6 5.7Z" fill="#1f1f1f"/></g><g transform="translate(581.1777,124.5762)"><path d="m0 0c2.6 1.1 3.8 4 2.7 6.6-1.1 2.6-4 3.8-6.6 2.7C-6.4 8.3-7.6 5.3-6.6 2.7-5.5 0.2-2.6-1.1 0 0" fill="#1f1f1f"/></g><g transform="translate(596.292,143.6055)"><path d="m0 0c0-0.1-0.1-0.1-0.1-0.2-1.7 2.6-3.9 4.8-6.5 6.6-0.1 0-0.1 0.1-0.2 0.1 2.6 1.7 4.8 3.9 6.6 6.5 0 0.1 0.1 0.1 0.1 0.2C1.6 10.6 3.8 8.4 6.4 6.6 6.5 6.6 6.5 6.6 6.6 6.5 4 4.8 1.7 2.6 0 0m10.9-0.1c2.5 1.7 5.6 2.7 8.9 2.7 1 0 2.1 0.4 2.8 1.2 0.7 0.7 1.2 1.8 1.2 2.8 0 1-0.4 2.1-1.2 2.8-0.7 0.7-1.8 1.2-2.8 1.2-2.2 0-4.3 0.4-6.2 1.2-2.8 1.2-5.3 3.2-7 5.8-1.7 2.5-2.7 5.6-2.7 8.9 0 1-0.4 2.1-1.2 2.8-0.7 0.7-1.8 1.2-2.8 1.2-1 0-2.1-0.4-2.8-1.2-0.7-0.7-1.2-1.8-1.2-2.8 0-2.2-0.4-4.3-1.2-6.2-1.2-2.8-3.2-5.3-5.7-7-2.5-1.7-5.6-2.7-8.9-2.7-1 0-2.1-0.4-2.8-1.2-0.7-0.7-1.2-1.8-1.2-2.8 0-1 0.4-2.1 1.2-2.8 0.7-0.7 1.8-1.2 2.8-1.2 2.2 0 4.3-0.4 6.2-1.2 2.8-1.2 5.3-3.2 7-5.7 1.7-2.5 2.7-5.6 2.7-8.9 0-1 0.4-2.1 1.2-2.8 0.7-0.7 1.8-1.2 2.8-1.2 1 0 2.1 0.4 2.8 1.2 0.7 0.7 1.2 1.8 1.2 2.8 0 2.2 0.4 4.3 1.2 6.2 1.2 2.8 3.2 5.3 5.8 7" fill="#1f1f1f"/></g><g transform="translate(596.1914,177.8779)"><path d="m0 0c2.2 0 4 1.8 4 4l0 7.9c0 2.2-1.8 4-4 4-2.2 0-4-1.8-4-4l0-7.9C-4 1.8-2.2 0 0 0" fill="#1f1f1f"/></g><g transform="translate(596.1914,122.373)"><path d="m0 0c-2.2 0-4-1.8-4-4l0-7.9c0-2.2 1.8-4 4-4 2.2 0 4 1.8 4 4l0 7.9C4-1.8 2.2 0 0 0" fill="#1f1f1f"/></g><g transform="translate(568.4385,150.125)"><path d="m0 0c0 2.2-1.8 4-4 4l-7.9 0c-2.2 0-4-1.8-4-4 0-2.2 1.8-4 4-4l7.9 0C-1.8-4 0-2.2 0 0" fill="#1f1f1f"/></g><g transform="translate(635.9385,103.959)"><path d="m0 0c0-0.1-0.1-0.1-0.1-0.2-1.7 2.6-3.9 4.8-6.5 6.6-0.1 0-0.1 0.1-0.2 0.1 2.6 1.7 4.8 3.9 6.6 6.5 0 0.1 0.1 0.1 0.1 0.2C1.6 10.6 3.8 8.4 6.4 6.6 6.5 6.6 6.5 6.6 6.6 6.5 4 4.8 1.7 2.6 0 0m19.7 10.5c-2.2 0-4.3 0.4-6.2 1.2-2.8 1.2-5.3 3.2-7 5.8-1.7 2.5-2.7 5.6-2.7 8.9 0 1-0.4 2.1-1.2 2.8-0.7 0.7-1.8 1.2-2.8 1.2-1 0-2.1-0.4-2.8-1.2-0.7-0.7-1.2-1.8-1.2-2.8 0-2.2-0.4-4.3-1.2-6.2-1.2-2.8-3.2-5.3-5.7-7-2.5-1.7-5.6-2.7-8.9-2.7-1 0-2.1-0.4-2.8-1.2-0.7-0.7-1.2-1.8-1.2-2.8 0-1 0.4-2.1 1.2-2.8 0.7-0.7 1.8-1.2 2.8-1.2 2.2 0 4.3-0.4 6.2-1.2 2.8-1.2 5.3-3.2 7-5.7 1.7-2.5 2.7-5.6 2.7-8.9 0-1 0.4-2.1 1.2-2.8 0.7-0.7 1.8-1.2 2.8-1.2 1 0 2.1 0.4 2.8 1.2 0.7 0.7 1.2 1.8 1.2 2.8 0 2.2 0.4 4.3 1.2 6.2 1.2 2.8 3.2 5.3 5.8 7 2.5 1.7 5.6 2.7 8.9 2.7 1 0 2.1 0.4 2.8 1.2 0.7 0.7 1.2 1.8 1.2 2.8 0 1-0.4 2.1-1.2 2.8-0.7 0.7-1.8 1.2-2.8 1.2" fill="#1f1f1f"/></g><g transform="translate(635.8379,82.7266)"><path d="m0 0c-2.2 0-4-1.8-4-4l0-7.9c0-2.2 1.8-4 4-4 2.2 0 4 1.8 4 4l0 7.9C4-1.8 2.2 0 0 0" fill="#1f1f1f"/></g><g transform="translate(635.8379,138.2314)"><path d="m0 0c2.2 0 4 1.8 4 4l0 7.9c0 2.2-1.8 4-4 4-2.2 0-4-1.8-4-4l0-7.9C-4 1.8-2.2 0 0 0" fill="#1f1f1f"/></g><g transform="translate(675.4834,114.4434)"><path d="m0 0-7.9 0c-2.2 0-4-1.8-4-4 0-2.2 1.8-4 4-4l7.9 0c2.2 0 4 1.8 4 4C4-1.8 2.2 0 0 0" fill="#1f1f1f"/></g></g></g></svg>