<svg xmlns:svg="http://www.w3.org/2000/svg" xmlns="http://www.w3.org/2000/svg" width="64" height="64" viewBox="0 0 64 64" version="1.1"><style>.s0{fill:#1f1f1f;}</style><g transform="translate(0,-988.3622)"><g transform="matrix(0.3907414,0,0,-0.3907414,-208.702,1206.3724)"><g transform="translate(649.1455,489.6382)"><path d="m0 0-3.7-1.5c1.6-4 2.4-8.1 2.4-12.1 0-6.3-1.9-12.4-5.3-17.5-3.4-5.2-8.3-9.4-14.5-11.9-4-1.6-8.1-2.4-12.1-2.4-6.3 0-12.4 1.9-17.5 5.3-5.2 3.4-9.4 8.3-11.9 14.5-1.6 4-2.4 8.1-2.4 12.1 0 6.3 1.9 12.4 5.3 17.5 3.4 5.2 8.3 9.4 14.5 11.9 4 1.6 8.1 2.4 12.1 2.4 6.3 0 12.4-1.9 17.5-5.3 5.2-3.4 9.4-8.3 11.9-14.5L0 0 3.7 1.5c-3.2 7.7-8.5 13.9-14.9 18.1-6.5 4.2-14.1 6.6-21.9 6.6-5 0-10.2-1-15.1-3-7.7-3.2-13.9-8.5-18.1-14.9-4.2-6.5-6.6-14.1-6.6-21.9 0-5 1-10.2 3-15.1 3.2-7.7 8.5-13.9 14.9-18.1 6.5-4.2 14.1-6.6 21.9-6.6 5.1 0 10.2 1 15.1 3 7.7 3.2 13.9 8.5 18.1 14.9 4.2 6.5 6.6 14.1 6.6 21.9 0 5-1 10.2-3 15.1L0 0Z" fill="#1f1f1f"/></g><g transform="translate(623.4287,446.6909)"><path d="m0 0c3.2 1.3 6 3.1 8.4 5.2 3.6 3.2 6.3 7.1 8.1 11.4 1.8 4.3 2.6 9 2.6 13.7 0 5.5-1.1 11-3.3 16.3-0.8 2-3.1 3-5.2 2.2-2-0.8-3-3.1-2.2-5.2 1.8-4.4 2.7-8.9 2.7-13.3 0-5.1-1.2-9.9-3.6-13.9C6.5 14.5 5 12.7 3.2 11.2 1.5 9.6-0.6 8.3-3 7.3-5 6.5-6 4.2-5.2 2.2-4.3 0.1-2-0.8 0 0" fill="#1f1f1f"/></g><g transform="translate(586.0068,510.5874)"><path d="m0 0-15 12.5c-1.7 1.4-4.2 1.2-5.6-0.5-1.4-1.7-1.2-4.2 0.5-5.6L-5.1-6.1c1.7-1.4 4.2-1.2 5.6 0.5C1.9-3.9 1.7-1.4 0 0" fill="#1f1f1f"/></g><g transform="translate(666.0537,435.0015)"><path d="m0 0-15 12.5c-1.7 1.4-4.2 1.2-5.6-0.5-1.4-1.7-1.2-4.2 0.5-5.6L-5.1-6.1C-3.4-7.5-0.9-7.3 0.5-5.6 1.9-3.9 1.7-1.4 0 0" fill="#1f1f1f"/></g><g transform="translate(570.5439,481.4194)"><path d="m0 0-19.5-0.8c-2.2-0.1-3.9-1.9-3.8-4.1 0.1-2.2 1.9-3.9 4.1-3.8L0.3-7.9c2.2 0.1 3.9 1.9 3.8 4.1C4-1.6 2.2 0.1 0 0" fill="#1f1f1f"/></g><g transform="translate(680.6182,479.3003)"><path d="m0 0-19.5-0.8c-2.2-0.1-3.9-1.9-3.8-4.1 0.1-2.2 1.9-3.9 4.1-3.8l19.5 0.8c2.2 0.1 3.9 1.9 3.8 4.1C4-1.6 2.2 0.1 0 0" fill="#1f1f1f"/></g><g transform="translate(620.376,521.1909)"><path d="m0 0 0 22.2c0 2.2-1.8 4-4 4-2.2 0-4-1.8-4-4L-7.9 0C-7.9-2.2-6.2-4-4-4-1.8-4 0-2.2 0 0" fill="#1f1f1f"/></g><g transform="translate(619.5537,408.7358)"><path d="m0 0 0 22.1c0 2.2-1.8 4-4 4-2.2 0-4-1.8-4-4L-7.9 0c0-2.2 1.8-4 4-4C-1.8-4 0-2.2 0 0" fill="#1f1f1f"/></g><g transform="translate(651.1006,504.4155)"><path d="m0 0 14.7 13.7c1.6 1.5 1.7 4 0.2 5.6-1.5 1.6-4 1.7-5.6 0.2L-5.4 5.8C-7 4.3-7.1 1.8-5.6 0.2-4.1-1.4-1.6-1.5 0 0" fill="#1f1f1f"/></g><g transform="translate(570.6357,428.1147)"><path d="m0 0 14.7 13.7c1.6 1.5 1.7 4 0.2 5.6-1.5 1.6-4 1.7-5.6 0.2L-5.4 5.8C-7 4.3-7.1 1.8-5.6 0.2-4.1-1.4-1.6-1.5 0 0" fill="#1f1f1f"/></g><g transform="translate(593.1982,535.1655)"><path d="M0 0-0.8 2-0.1 0 0 0l-0.8 2 0.8-2.1-0.1 0.4 0.1-0.4 0 0-0.1 0.4 0.1-0.4 0 0c0.1 0 0.6 0.2 1 0.2 0.2 0 0.3 0 0.4 0L1.6 0C1.7 0 1.7 0 1.8-0.2 2-0.3 2.1-0.5 2.3-1 2.5-1.5 2.5-1.7 2.5-1.9 2.5-2 2.5-2.1 2.5-2.1 2.5-2.2 2.4-2.3 2.3-2.5 2.2-2.7 1.9-2.9 1.6-3.1 1.5-3.2 1.4-3.2 1.3-3.3L1.3-3.3 1.3-3.3 1.6-3.9 1.3-3.3 1.3-3.3 1.6-3.9 1.3-3.3 2.4-5.8 1.3-3.3 1.3-3.3 2.4-5.8 1.3-3.3C1.2-3.3 0.8-3.5 0.3-3.8-0.1-4-0.6-4.3-1.1-4.7-1.9-5.3-2.7-6.2-3.5-7.4-3.8-8-4.2-8.7-4.4-9.5c-0.2-0.8-0.4-1.6-0.4-2.5 0-1.3 0.3-2.6 0.8-4l0 0c0.4-1.1 1-2 1.7-2.8 0.5-0.6 1.1-1.1 1.7-1.6 0.9-0.6 1.9-1.1 2.8-1.3 0.9-0.2 1.8-0.3 2.5-0.3 1.1 0 2 0.2 2.7 0.3 0.7 0.2 1.1 0.3 1.3 0.4 2 0.8 3 3.2 2.2 5.2-0.8 2-3.2 3-5.2 2.2l0.8-2-0.8 2.1-0.1 0 0.8-2-0.8 2.1 0.1-0.4-0.1 0.4 0 0 0.1-0.4-0.1 0.4 0 0c-0.1 0-0.6-0.2-1-0.2-0.2 0-0.3 0-0.4 0l-0.2 0.1c-0.1 0-0.1 0.1-0.3 0.2-0.1 0.1-0.3 0.3-0.5 0.8-0.2 0.5-0.2 0.8-0.2 0.9 0 0.1 0 0.2 0 0.2 0 0.1 0.1 0.2 0.2 0.4 0.2 0.2 0.5 0.5 0.7 0.6 0.1 0.1 0.2 0.1 0.3 0.2l0 0 0 0-0.3 0.6 0.3-0.6 0 0-0.3 0.6 0.3-0.6-1.1 2.5 1-2.5 0.1 0-1.1 2.5 1-2.5c0.1 0.1 0.5 0.2 1 0.5 0.4 0.2 0.9 0.5 1.4 0.9 0.8 0.6 1.7 1.5 2.4 2.7 0.4 0.6 0.7 1.3 0.9 2.1 0.2 0.8 0.4 1.6 0.4 2.5 0 1.3-0.3 2.6-0.8 4C9.2 3.1 8.6 4.1 8 4.9 7.4 5.5 6.9 6 6.3 6.4 5.4 7.1 4.4 7.5 3.5 7.7 2.6 8 1.7 8.1 1 8.1-0.2 8.1-1.1 7.9-1.8 7.7-2.4 7.6-2.9 7.4-3 7.3-5 6.5-6 4.2-5.2 2.2-4.3 0.1-2-0.8 0 0" fill="#1f1f1f"/></g><g transform="translate(633.1123,430.6987)"><path d="M0 0-0.8 2-0.1 0 0 0l-0.8 2 0.8-2.1-0.1 0.4 0.1-0.4 0 0-0.1 0.4 0.1-0.4 0 0c0.1 0 0.6 0.2 1 0.2 0.2 0 0.3 0 0.4 0L1.6 0C1.7 0 1.7 0 1.9-0.2 2-0.3 2.1-0.5 2.3-1 2.5-1.5 2.5-1.7 2.5-1.9 2.5-2 2.5-2.1 2.5-2.1 2.5-2.2 2.4-2.3 2.3-2.5 2.2-2.7 1.9-2.9 1.6-3.1 1.5-3.2 1.4-3.2 1.3-3.3L1.3-3.3 1.3-3.3 1.6-3.9 1.3-3.3 1.3-3.3 1.6-3.9 1.3-3.3 2.4-5.8 1.4-3.3 1.3-3.3 2.4-5.8 1.4-3.3C1.2-3.3 0.8-3.5 0.3-3.8-0.1-4-0.6-4.3-1.1-4.7-1.9-5.3-2.7-6.2-3.5-7.4-3.8-8-4.2-8.7-4.4-9.5c-0.2-0.8-0.4-1.6-0.4-2.5 0-1.3 0.3-2.6 0.8-4l0 0c0.4-1.1 1-2 1.7-2.8 0.5-0.6 1.1-1.1 1.7-1.6 0.9-0.6 1.9-1.1 2.8-1.3 0.9-0.2 1.8-0.3 2.5-0.3 1.1 0 2 0.2 2.7 0.3 0.7 0.2 1.1 0.3 1.3 0.4 2 0.8 3 3.2 2.2 5.2-0.8 2-3.1 3-5.2 2.2l0.8-2-0.8 2.1-0.1 0 0.8-2-0.8 2.1 0.1-0.4-0.1 0.4 0 0 0.1-0.4-0.1 0.4 0 0c-0.1 0-0.6-0.2-1-0.2-0.2 0-0.3 0-0.4 0l-0.2 0.1c-0.1 0-0.2 0.1-0.3 0.2-0.1 0.1-0.3 0.3-0.5 0.8l0 0c-0.2 0.5-0.2 0.8-0.2 0.9 0 0.1 0 0.2 0 0.2 0 0.1 0.1 0.2 0.2 0.3 0.2 0.2 0.5 0.5 0.7 0.6 0.1 0.1 0.2 0.1 0.3 0.2l0 0 0 0-0.3 0.6 0.3-0.6 0 0-0.3 0.6 0.3-0.6-1.1 2.5 1-2.5 0.1 0-1.1 2.5 1-2.5c0.1 0.1 0.5 0.2 1 0.5 0.4 0.2 0.9 0.5 1.4 0.9 0.8 0.6 1.7 1.5 2.4 2.7 0.4 0.6 0.7 1.3 0.9 2.1 0.2 0.8 0.4 1.6 0.4 2.5 0 1.3-0.3 2.6-0.8 4L9.6 2.1C9.2 3.1 8.6 4.1 8 4.9 7.5 5.5 6.9 6 6.3 6.4 5.4 7.1 4.4 7.5 3.5 7.7 2.6 8 1.7 8.1 1 8.1-0.2 8.1-1.1 7.9-1.8 7.7-2.4 7.6-2.9 7.4-3 7.3-5 6.5-6 4.2-5.2 2.2-4.3 0.1-2-0.8 0 0L0 0Z" fill="#1f1f1f"/></g><g transform="translate(641.7217,533.9683)"><path d="M0 0 0.9 2.2-0.1 0 0 0 0.9 2.2-0.1 0 0.1 0.4-0.1 0-0.1 0 0.1 0.4-0.1 0C-0.1 0 0.1 0 0.3-0.1 0.5-0.3 0.8-0.6 1-0.8 1.1-0.9 1.1-1 1.1-1.1 1.2-1.2 1.2-1.2 1.2-1.4 1.2-1.5 1.2-1.8 1-2.3 0.8-2.7 0.6-2.9 0.5-3.1 0.4-3.2 0.4-3.2 0.3-3.2 0.2-3.3 0.2-3.3 0.1-3.4-0.1-3.4-0.2-3.4-0.4-3.4c-0.3 0-0.6 0.1-0.8 0.1-0.1 0-0.2 0.1-0.2 0.1l0 0 0 0-0.7-1.9 0.8 1.8-0.1 0-0.7-1.9 0.8 1.8c-0.1 0.1-0.6 0.2-1.3 0.4-0.7 0.2-1.6 0.3-2.7 0.4-0.7 0-1.4-0.1-2.2-0.3-0.6-0.1-1.2-0.3-1.8-0.7-0.9-0.5-1.9-1.1-2.6-2-0.8-0.9-1.4-1.9-1.9-3.1-0.6-1.3-0.8-2.7-0.8-4 0-0.8 0.1-1.5 0.3-2.2 0.3-1.2 0.9-2.3 1.5-3.1 0.9-1.2 1.9-2 2.7-2.5 0.8-0.5 1.4-0.8 1.6-0.8 2-0.8 4.3 0.1 5.2 2.1 0.8 2-0.1 4.3-2.1 5.2l-0.9-2.2 1 2.1-0.1 0-0.9-2.2 1 2.1-0.1-0.3 0.1 0.3 0 0-0.1-0.3 0.1 0.3c0 0-0.1 0.1-0.3 0.2-0.3 0.2-0.6 0.4-0.7 0.7-0.1 0.1-0.1 0.2-0.2 0.3 0 0.1 0 0.2 0 0.3 0 0.2 0 0.4 0.2 0.9 0.2 0.4 0.3 0.6 0.4 0.7 0.1 0.1 0.1 0.2 0.2 0.2 0.1 0.1 0.2 0.1 0.3 0.1 0.1 0 0.3 0.1 0.5 0.1 0.3 0 0.6 0 0.8-0.1 0.1 0 0.2-0.1 0.2-0.1l0 0 0 0 0.7 1.9-0.8-1.8 0.1 0 0.7 1.9-0.8-1.8c0.1-0.1 0.6-0.2 1.3-0.4 0.7-0.2 1.6-0.3 2.7-0.3 0.7 0 1.4 0.1 2.2 0.3 0.6 0.1 1.2 0.4 1.8 0.7 0.9 0.5 1.9 1.1 2.7 2 0.8 0.9 1.4 1.9 1.9 3.1l0 0c0.6 1.3 0.8 2.7 0.8 4C9.1-0.6 9 0.2 8.8 0.9 8.5 2.1 7.9 3.1 7.3 3.9 6.4 5.2 5.4 5.9 4.6 6.5 3.8 7 3.2 7.2 3 7.3 1 8.2-1.3 7.2-2.1 5.2-3 3.2-2 0.8 0 0" fill="#1f1f1f"/></g><g transform="translate(596.0771,431.8745)"><path d="M0 0 0.9 2.2-0.1 0 0 0 0.9 2.2-0.1 0 0.1 0.4-0.1 0-0.1 0 0.1 0.4-0.1 0C-0.1 0 0.1 0 0.2-0.1 0.5-0.3 0.8-0.6 1-0.8 1.1-0.9 1.1-1 1.1-1.1 1.2-1.2 1.2-1.2 1.2-1.4 1.2-1.5 1.2-1.8 1-2.3 0.8-2.7 0.6-2.9 0.5-3.1 0.4-3.2 0.4-3.2 0.3-3.2 0.2-3.3 0.2-3.3 0.1-3.4-0.1-3.4-0.2-3.4-0.4-3.4c-0.3 0-0.6 0.1-0.8 0.1-0.1 0-0.2 0.1-0.2 0.1l0 0 0 0-0.7-1.9 0.8 1.8-0.1 0-0.7-1.9 0.8 1.8c-0.1 0.1-0.6 0.2-1.3 0.4-0.7 0.2-1.6 0.3-2.7 0.3-0.7 0-1.4-0.1-2.2-0.3-0.6-0.1-1.2-0.3-1.8-0.7-0.9-0.5-1.9-1.1-2.6-2-0.8-0.9-1.4-1.9-1.9-3.1-0.6-1.3-0.8-2.7-0.8-4 0-0.8 0.1-1.5 0.3-2.2 0.3-1.2 0.9-2.3 1.5-3.1 0.9-1.2 1.9-2 2.7-2.5 0.8-0.5 1.4-0.8 1.6-0.8 2-0.8 4.3 0.1 5.2 2.1 0.8 2-0.1 4.3-2.1 5.2l-0.9-2.2 1 2.1-0.1 0-0.9-2.2 1 2.1-0.1-0.3 0.1 0.3 0 0-0.1-0.3 0.1 0.3c0 0-0.1 0.1-0.3 0.2-0.3 0.2-0.6 0.4-0.7 0.7-0.1 0.1-0.1 0.2-0.2 0.3 0 0.1 0 0.2 0 0.3 0 0.2 0 0.4 0.2 0.9 0.2 0.4 0.3 0.6 0.4 0.7 0.1 0.1 0.1 0.2 0.2 0.2 0.1 0.1 0.2 0.1 0.3 0.1 0.1 0 0.3 0.1 0.5 0.1 0.3 0 0.6 0 0.8-0.1 0.1 0 0.2-0.1 0.2-0.1l0 0 0.7 1.9-0.8-1.8 0.1 0 0.7 1.9-0.8-1.8c0.1-0.1 0.6-0.2 1.3-0.4 0.7-0.2 1.6-0.3 2.7-0.3 0.7 0 1.4 0.1 2.2 0.3 0.6 0.1 1.2 0.4 1.8 0.7 0.9 0.4 1.9 1.1 2.6 2 0.8 0.9 1.4 1.9 1.9 3.1 0.6 1.3 0.8 2.7 0.8 4 0 0.8-0.1 1.5-0.3 2.2C8.5 2.1 7.9 3.1 7.3 3.9 6.4 5.2 5.4 5.9 4.6 6.5 3.8 7 3.2 7.2 3 7.3 1 8.2-1.3 7.2-2.1 5.2-3 3.2-2 0.8 0 0" fill="#1f1f1f"/></g><g transform="translate(558.04,501.7026)"><path d="M0 0-2.2 0.9 0-0.1 0 0l-2.2 0.9 2.1-1-0.3 0.1 0.3-0.2 0 0-0.3 0.1 0.3-0.2C0-0.1 0 0.1 0.2 0.3 0.3 0.5 0.6 0.8 0.8 1 0.9 1.1 1 1.1 1.1 1.1 1.2 1.2 1.2 1.2 1.4 1.2 1.5 1.2 1.8 1.2 2.3 1 2.7 0.8 2.9 0.6 3.1 0.5 3.2 0.4 3.2 0.4 3.2 0.3 3.3 0.3 3.3 0.2 3.4 0.1 3.4-0.1 3.4-0.2 3.4-0.4 3.4-0.7 3.4-1 3.3-1.2 3.3-1.3 3.3-1.4 3.3-1.4L3.2-1.4 3.2-1.4 5.1-2.1 3.3-1.4 3.2-1.4 5.1-2.1 3.3-1.4l0 0C3.2-1.5 3-1.9 2.9-2.6 2.7-3.3 2.5-4.2 2.5-5.4c0-0.7 0.1-1.4 0.3-2.2 0.1-0.6 0.4-1.2 0.7-1.8 0.4-0.9 1.1-1.9 2-2.6 0.9-0.8 1.9-1.4 3.1-1.9 1.3-0.6 2.7-0.8 4-0.8 0.8 0 1.5 0.1 2.2 0.3 1.2 0.3 2.3 0.9 3.1 1.5 1.2 0.9 2 1.9 2.5 2.7 0.5 0.8 0.8 1.4 0.8 1.6 0.8 2-0.1 4.3-2.1 5.2-2 0.8-4.3-0.1-5.2-2.1l2.2-0.9-2.1 1 0-0.1 2.2-0.9-2.1 1 0.3-0.1-0.3 0.2 0 0 0.3-0.1-0.3 0.2C13.9-5.7 13.8-5.8 13.7-6 13.5-6.3 13.3-6.6 13-6.8c-0.1-0.1-0.2-0.1-0.3-0.2-0.1 0-0.2 0-0.3 0-0.2 0-0.4 0-0.9 0.2-0.4 0.2-0.6 0.3-0.7 0.4-0.1 0.1-0.1 0.1-0.2 0.2-0.1 0.1-0.1 0.2-0.1 0.3 0 0.1-0.1 0.3-0.1 0.5 0 0.3 0.1 0.6 0.1 0.8 0 0.1 0.1 0.2 0.1 0.2l0 0 0 0-1.9 0.7 1.8-0.8 0 0.1-1.9 0.7 1.8-0.8 0 0c0.1 0.1 0.2 0.6 0.4 1.3 0.2 0.7 0.3 1.6 0.3 2.7 0 0.7-0.1 1.4-0.3 2.2C11 2.4 10.7 3.1 10.4 3.7 10 4.6 9.3 5.5 8.5 6.3 7.6 7.1 6.5 7.8 5.4 8.3 4 8.8 2.7 9.1 1.4 9.1 0.6 9.1-0.2 9-0.9 8.8-2.1 8.5-3.1 7.9-3.9 7.3-5.2 6.4-5.9 5.4-6.5 4.6-7 3.8-7.2 3.2-7.3 3-8.2 1-7.2-1.3-5.2-2.1-3.2-3-0.8-2 0 0" fill="#1f1f1f"/></g><g transform="translate(660.1338,456.0581)"><path d="M0 0-2.2 0.9 0-0.1 0 0l-2.2 0.9 2.1-1-0.3 0.1 0.3-0.2 0 0-0.3 0.1 0.3-0.2c0 0 0.1 0.1 0.2 0.3 0.2 0.3 0.4 0.6 0.7 0.7 0.1 0.1 0.2 0.1 0.3 0.2 0.1 0 0.2 0 0.3 0 0.2 0 0.4 0 0.9-0.2C2.7 0.8 2.9 0.6 3.1 0.5 3.2 0.4 3.2 0.4 3.2 0.3 3.3 0.2 3.3 0.2 3.4 0.1 3.4-0.1 3.4-0.2 3.4-0.4 3.4-0.7 3.4-1 3.3-1.2 3.3-1.3 3.3-1.4 3.2-1.4l0 0 0 0 1.9-0.7-1.8 0.8 0-0.1 1.9-0.7-1.8 0.8 0 0C3.2-1.5 3-1.9 2.9-2.6 2.7-3.3 2.5-4.2 2.5-5.4c0-0.7 0.1-1.4 0.3-2.2 0.1-0.6 0.4-1.2 0.7-1.8 0.5-0.9 1.1-1.9 2-2.6 0.9-0.8 1.9-1.4 3.1-1.9 1.3-0.6 2.7-0.8 4-0.8 0.8 0 1.5 0.1 2.2 0.3 1.2 0.3 2.3 0.9 3.1 1.5 1.2 0.9 2 1.9 2.5 2.7 0.5 0.8 0.8 1.4 0.8 1.6 0.8 2-0.1 4.3-2.1 5.2-2 0.8-4.3-0.1-5.2-2.1l2.2-0.9-2.1 1 0-0.1 2.2-0.9-2.1 1 0.3-0.1-0.3 0.2 0 0 0.3-0.1-0.3 0.2C13.9-5.7 13.8-5.8 13.7-6 13.5-6.3 13.3-6.6 13-6.8c-0.1-0.1-0.2-0.1-0.3-0.2-0.1 0-0.2 0-0.3 0-0.2 0-0.4 0-0.9 0.2-0.4 0.2-0.6 0.3-0.7 0.4-0.1 0.1-0.2 0.1-0.2 0.2-0.1 0.1-0.1 0.2-0.1 0.3 0 0.1-0.1 0.3-0.1 0.5 0 0.3 0.1 0.6 0.1 0.8 0 0.1 0.1 0.2 0.1 0.2l0 0-1.9 0.7 1.8-0.8 0 0.1-1.9 0.7 1.8-0.8 0 0c0.1 0.1 0.2 0.6 0.4 1.3 0.2 0.7 0.4 1.6 0.4 2.7 0 0.7-0.1 1.4-0.3 2.2C11 2.4 10.7 3.1 10.4 3.7 10 4.6 9.3 5.5 8.5 6.3 7.6 7.1 6.5 7.8 5.4 8.3 4 8.8 2.7 9.1 1.4 9.1 0.6 9.1-0.2 9-0.9 8.8-2.1 8.5-3.1 7.9-3.9 7.3-5.2 6.4-5.9 5.4-6.5 4.6-7 3.8-7.2 3.2-7.3 3-8.2 1-7.2-1.3-5.2-2.1-3.2-3-0.8-2 0 0" fill="#1f1f1f"/></g><g transform="translate(556.8408,453.1812)"><path d="M0 0-2-0.8 0-0.1 0 0l-2-0.8 2.1 0.8-0.4-0.1 0.4 0.1 0 0-0.4-0.1 0.4 0.1 0 0c0 0.1-0.2 0.6-0.2 1 0 0.2 0 0.3 0 0.4l0.1 0.2C0 1.7 0 1.7 0.2 1.8 0.3 2 0.5 2.1 1 2.3 1.5 2.5 1.7 2.5 1.9 2.5 2 2.5 2.1 2.5 2.1 2.5 2.2 2.5 2.3 2.4 2.5 2.3 2.7 2.2 2.9 1.9 3.1 1.6 3.2 1.5 3.3 1.4 3.3 1.3L3.3 1.3 3.3 1.3 3.9 1.6 3.3 1.3 3.3 1.3 3.9 1.6 3.3 1.3 5.8 2.4 3.3 1.3 3.3 1.3 5.8 2.4 3.3 1.3C3.3 1.2 3.5 0.8 3.8 0.3 4-0.1 4.3-0.6 4.7-1.1 5.4-1.9 6.2-2.7 7.4-3.5c0.6-0.4 1.3-0.7 2.1-0.9 0.8-0.2 1.6-0.4 2.5-0.4 1.3 0 2.6 0.3 4 0.8 1.1 0.4 2 1 2.8 1.7 0.6 0.5 1.1 1.1 1.6 1.7 0.6 0.9 1.1 1.9 1.3 2.8 0.2 0.9 0.3 1.8 0.3 2.5 0 1.1-0.2 2-0.3 2.7-0.2 0.7-0.3 1.1-0.4 1.3-0.8 2-3.1 3-5.2 2.2-2-0.8-3-3.1-2.2-5.2l2 0.8-2.1-0.8 0-0.1 2 0.8-2.1-0.8 0.4 0.1-0.4-0.1 0 0 0.4 0.1-0.4-0.1 0 0c0-0.1 0.2-0.6 0.2-1 0-0.2 0-0.3 0-0.4L13.9 4.1C13.9 4 13.8 4 13.7 3.9 13.6 3.8 13.4 3.6 12.9 3.4 12.4 3.2 12.1 3.2 12 3.2c-0.1 0-0.2 0-0.2 0-0.1 0-0.2 0.1-0.3 0.2-0.2 0.2-0.5 0.5-0.6 0.7-0.1 0.1-0.1 0.2-0.2 0.3L10.6 4.4 10.6 4.4 10 4.2 10.6 4.4 10.6 4.4 10 4.2 10.6 4.4 8.1 3.3 10.6 4.4 10.6 4.4 8.1 3.3 10.6 4.4C10.6 4.5 10.4 4.9 10.1 5.4 9.9 5.8 9.6 6.3 9.1 6.8 8.5 7.6 7.7 8.5 6.5 9.2 5.9 9.6 5.2 9.9 4.4 10.1 3.6 10.3 2.8 10.5 1.9 10.5 0.6 10.5-0.7 10.2-2.1 9.6-3.1 9.2-4.1 8.6-4.9 8-5.5 7.4-6 6.9-6.4 6.3-7.1 5.4-7.5 4.4-7.7 3.5-8 2.6-8.1 1.7-8.1 1c0-1.1 0.2-2 0.3-2.7 0.2-0.7 0.3-1.1 0.4-1.3 0.8-2 3.2-3 5.2-2.2C-0.1-4.3 0.8-2 0 0L0 0Z" fill="#1f1f1f"/></g><g transform="translate(661.3076,493.0952)"><path d="M0 0-2-0.8 0-0.1 0 0l-2-0.8 2.1 0.8-0.4-0.1 0.4 0.1 0 0-0.4-0.1 0.4 0.1 0 0c0 0.1-0.2 0.6-0.2 1 0 0.2 0 0.3 0 0.4l0.1 0.2c0 0.1 0.1 0.2 0.2 0.3 0.1 0.1 0.3 0.3 0.8 0.5 0.5 0.2 0.8 0.2 0.9 0.2 0.1 0 0.2 0 0.2 0C2.2 2.5 2.3 2.4 2.5 2.3 2.7 2.2 2.9 1.9 3.1 1.6 3.2 1.5 3.3 1.4 3.3 1.3L3.3 1.3 3.3 1.3 3.9 1.6 3.3 1.3 3.3 1.3 3.9 1.6 3.3 1.3 5.8 2.4 3.3 1.3 3.3 1.3 5.8 2.4 3.3 1.3C3.3 1.2 3.5 0.8 3.8 0.3 4-0.1 4.3-0.6 4.7-1.1 5.4-1.9 6.2-2.7 7.4-3.5 8-3.8 8.7-4.2 9.5-4.4c0.8-0.2 1.6-0.4 2.5-0.4 1.3 0 2.6 0.3 4 0.8 1.1 0.4 2 1 2.8 1.7 0.6 0.5 1.1 1.1 1.6 1.7 0.6 0.9 1.1 1.9 1.3 2.8 0.2 0.9 0.3 1.8 0.3 2.5 0 1.1-0.2 2-0.3 2.7-0.2 0.7-0.3 1.1-0.4 1.3-0.8 2-3.1 3-5.2 2.2C14 10.1 13 7.7 13.9 5.7l2 0.8-2.1-0.8 0-0.1 2 0.8-2.1-0.8 0.4 0.1-0.4-0.1 0 0 0.4 0.1-0.4-0.1 0 0c0-0.1 0.2-0.6 0.2-1C14 4.6 14 4.4 14 4.3L13.9 4.1C13.9 4 13.8 4 13.7 3.9 13.6 3.8 13.4 3.6 12.9 3.4 12.4 3.2 12.1 3.2 12 3.2c-0.1 0-0.2 0-0.2 0-0.1 0-0.2 0.1-0.4 0.2-0.2 0.2-0.5 0.5-0.6 0.7-0.1 0.1-0.1 0.2-0.2 0.3L10.6 4.4 10.6 4.4 10 4.2 10.6 4.4 10.6 4.4 10 4.2 10.6 4.4 8.1 3.3 10.6 4.4 10.6 4.4 8.1 3.3 10.6 4.4C10.6 4.5 10.4 4.9 10.1 5.4 9.9 5.8 9.6 6.3 9.1 6.8 8.5 7.6 7.7 8.5 6.5 9.2 5.9 9.6 5.2 9.9 4.4 10.1 3.6 10.3 2.8 10.5 1.9 10.5 0.6 10.5-0.7 10.2-2.1 9.6-3.1 9.2-4.1 8.6-4.9 8-5.5 7.5-6 6.9-6.4 6.3-7.1 5.4-7.5 4.4-7.7 3.5-8 2.6-8.1 1.7-8.1 1-8.1-0.2-7.9-1.1-7.7-1.8c0.2-0.7 0.3-1.1 0.4-1.3 0.8-2 3.2-3 5.2-2.2C-0.1-4.3 0.8-2 0 0" fill="#1f1f1f"/></g></g></g></svg>