<?xml version="1.0" encoding="UTF-8" standalone="no"?>
<svg id="svg2" xmlns:rdf="http://www.w3.org/1999/02/22-rdf-syntax-ns#" xmlns="http://www.w3.org/2000/svg" height="1e3pt" width="1e3pt" version="1.1" xmlns:cc="http://creativecommons.org/ns#" xmlns:dc="http://purl.org/dc/elements/1.1/" viewBox="0 0 1000 1000">
 <path id="path6" fill="#252524" d="m485.01 136.44c9.32-0.46 18.58-2.3 27.95-1.83 12.35 0.09 24.69-1.49 37.04-0.42 11.37 0.45 22.67 1.81 34.02 2.62 4.59 0.9 9.26 1.42 13.82 2.55 15.22 3.21 31.21 3.38 45.76 9.34 14.26 3.64 28.48 7.5 42.47 12.09 6.03 1.95 11.7 4.87 17.79 6.64 7.65 2.34 14.53 6.5 21.58 10.17 5.48 2.94 11.49 4.83 16.69 8.31 15.01 9.5 29.79 19.37 44.31 29.59 9.11 5.66 17.02 12.97 24.97 20.1 4.02 3.63 7.66 7.81 12.48 10.43 1.67 0.91 3.35 1.89 4.61 3.36 6.23 6.8 12.91 13.17 19.94 19.13 6.96 5.77 11.79 13.54 17.48 20.48 9.78 11.97 18.55 24.72 28 36.95 6.04 8.09 12 16.28 17.25 24.91 2.77 6.09 5.21 12.39 6.72 18.92 1.06 3.94 0.17 8.07 0.99 12.04 4.19 18.75 5.53 38.01 5.8 57.17-0.31 6.28 1.63 12.34 2.53 18.5 5.67 33.77 6.43 68.49 0.97 102.34-4.25 25.56-12.22 50.68-25.05 73.27-1.7 3.49-5.47 5.18-7.48 8.44-2.9 4.41-6.08 8.65-8.62 13.29-3.46 7.21-8.84 13.21-13.33 19.76-6.45 8.83-13.22 17.49-21.12 25.09-4.43 5.83-9.92 10.71-14.61 16.32-7.08 8.34-16.88 13.66-24.48 21.45-3.1 3.29-6.92 5.74-10.5 8.45-10.82 8.06-21.73 16.13-33.79 22.26-2.66 1.21-4.67 3.35-6.54 5.53-0.72-0.07-2.15-0.21-2.87-0.28-1.98 1.58-3.86 3.38-6.3 4.23-23.18 9.5-47.28 16.47-70.74 25.2-24.4 8.87-49.54 17.55-75.81 17.67-3.36-0.36-5.95 2.28-9.18 2.62-10.66 1.24-21.13 3.69-31.75 5.19-3.52 0.39-7.06-0.26-10.57 0.25-19.35 2.23-38.84 0.57-58.21-0.55-9.07-1.04-18.19-0.19-27.26-1.18-9.2 0.2-17.92-3.18-27.02-3.9-9.77-0.86-19.65-0.94-29.28-2.94-6.56-1.34-13.09-2.86-19.76-3.55-16.24 11.98-33.25 23.36-52.26 30.47-10.58 4.15-21.88 6.05-32.53 9.96-7.87 1.9-15.86 3.32-23.74 5.19-4.67 0.98-9.24 2.52-14.02 2.93-20.72 1.37-41.64 2-62.22-1.23-4.44-0.86-9.1-0.84-13.3-2.64-4.86-2.1-10.22-2.71-14.97-5.09-5.12-2.7-11.41-3.18-15.64-7.44-2.81-2.44-3.93-6.07-4.67-9.57 7.82-5 16.03-9.4 23.45-15 7.37-3.53 13.31-9.3 19.1-14.94 10.21-10.05 18.54-21.84 25.86-34.11 2.27-3.65 3.15-7.92 4.01-12.07-1.63-1.1-3.28-2.17-4.95-3.18-3.35-4.19-8.61-5.76-12.78-8.88-5.82-4.14-10.77-9.39-16.69-13.4-4.9-3.34-8.38-8.32-13.23-11.72-3.71-2.62-7.49-5.17-10.46-8.65-6.46-5.29-13.44-9.94-20.07-15.01-8.5-7.78-16.58-16.03-24.28-24.6-3.95-4.84-6.56-10.63-10.76-15.29-0.46-2.74-1.9-5.13-3.94-6.98-4.6-4.12-5.97-10.46-9.87-15.13-10.09-12.64-18.62-26.64-24.22-41.85-8.71-22.69-11.58-47.08-12.82-71.19-1.19-33.36-2.97-67.02 2.45-100.13 3.19-19.83 9.44-39.4 20.35-56.4 2.35-6.77 4.56-13.89 9.41-19.4 2.78-3.06 4.01-7.12 6.59-10.31 1.64-2.05 3.94-3.56 5.11-5.97 1.99-3.85 4.61-7.31 7.25-10.73 3.09-3.95 5.09-8.7 8.81-12.15 4.65-4.5 8.42-9.79 11.96-15.18 1.98-3.26 5.19-5.46 7.53-8.43 2.81-3.48 5.24-7.3 8.5-10.39 3.47-3.55 8.12-5.74 11.3-9.6 2.61-3.16 5.38-6.26 8.91-8.42 0.23-0.45 0.69-1.36 0.92-1.81 3.68-1.8 6.36-4.97 9.48-7.54 8.43-7.04 17.75-12.91 26.41-19.65 3.06-2.44 6.68-4.01 9.94-6.14 7.89-5.09 15.1-11.3 23.67-15.28 6.03-2.79 11.91-5.88 17.7-9.13 15.64-8.98 32.28-15.98 48.6-23.6 17.7-7.2 35.17-14.99 53.1-21.62 9.31-2.45 18.72-4.54 28.02-7.07 11.38-1.96 22.95-2.55 34.39-4.14 4.95-0.75 10.11-0.98 14.75-3.04 9.75-0.35 19.3-2.46 28.95-3.63 3.91-1.13 7.99-0.63 12-0.83z"/>
 <path id="path8" fill="#fefefe" d="m467.41 173.06c21.81-1.75 43.77-5.37 65.65-2.43 5.41 0.45 10.42 3.07 15.9 2.96 14.78-0.43 29.03 4.27 43.28 7.54 4.9 0.65 9.82 1.42 14.52 3.05 4.49 1.55 9.35 1.72 13.73 3.64 10.16 3.2 20.97 4.08 30.92 8.02 4.95 2.2 10.31 3.22 15.31 5.33 13.11 3.54 25.3 9.89 36.79 17.03 3.88 1.18 6.82 4.03 10.29 5.98 9.9 4.58 17.65 12.55 27.13 17.83 4.45 4.15 9.73 7.29 14.05 11.57 1.02 0.29 2.01 0.58 3.05 0.87 6.49 6.13 13.62 11.54 20.98 16.57 1.61 1.06 3.02 2.41 4.04 4.07 5.39 3.23 9.55 8.13 15.17 11.01 5.11 3.07 9.6 7.04 14.72 10.11 3.75 2.04 6.39 5.58 10.22 7.53 2.16 2.14 4.62 4.05 6.19 6.72 11.18 17.54 21.85 35.69 28.32 55.58 3.25 8.81 4.2 18.34 8.27 26.86 23.86 60.01 25.29 129.74-0.59 189.35-14.96 36.5-32.74 72.93-60.71 101.36-2.73 3.02-5.33 6.22-8.82 8.42-0.15 0.5-0.46 1.5-0.61 2-1.1 0.6-2.18 1.21-3.26 1.82-0.2 0.58-0.62 1.74-0.83 2.32-0.41 0.14-1.22 0.4-1.63 0.54-3.58 3.68-7.36 7.18-11.43 10.31-3.88 4.18-8.6 7.39-12.92 11.07-2.42 1.97-5.1 3.61-7.94 4.88-5.16 6.72-13.38 9.93-19.71 15.33-7.52 3.88-15.15 7.66-23.29 10.02-3.42 1.69-6.87 3.34-10.31 4.99-7.11 2.77-14.7 3.91-21.92 6.3-3.13 1.12-6.53 1.21-9.6 2.5-14.46 5.89-30.17 7.23-45.27 10.69-22.4 5.14-45.31 7.29-68.1 9.88-6.29 1.1-12.63 1.91-19.01 2.04-17.66 0.33-35.34-0.31-52.96-1.26-14.98-2-30.16-1.72-45.14-3.77-3.28-0.47-6.59 0.03-9.88 0.01-19.21-0.16-38.39-3.72-57.59-1.76-10.11 4.83-18.6 12.26-27.96 18.32-6.23 3.98-12.31 8.32-19.22 11.05-4.11 1.62-7.73 4.27-11.85 5.84-8.12 2.87-15.79 7.09-24.35 8.57-11.63 3.93-23.76 6.51-36.03 7.28-7.44 1.4-15.02 0.72-22.5 0.06-0.05-0.47-0.16-1.41-0.22-1.88 8.58-8.04 18.36-15.51 23.54-26.37 0.95-2.25 2.94-3.73 4.33-5.65 1.57-2.55 1.9-5.69 3.75-8.08 1.84-2.67 4.44-4.94 5.38-8.13 0.71-2.43 1.28-4.92 2.56-7.13 2.8-4.77 3.08-10.52 2.91-15.91-0.08-4.74-2.29-9.02-3.34-13.54-1.58-4.07-6.14-5.45-9.53-7.56-4.78-3.49-9.37-7.23-14.41-10.33-6.41-5.71-14.1-9.67-20.5-15.4-5.93-4-10.61-9.49-16.54-13.48-2.74-1.85-4.96-4.3-7.39-6.5-8.39-6.76-13.9-16.27-21.82-23.5-4.72-4.39-8.79-9.4-12.01-14.97-7.47-8.72-13.47-18.55-19.16-28.48-3.08-5.84-5.45-12.74-11.6-16.09-3.87-17.98-12.69-34.33-17.72-51.94-5.87-19.48-8.21-39.81-9.03-60.07-0.65-23.56-1.38-47.31 2.34-70.68 2.09-12.79 5.22-25.54 10.64-37.36 2.87-1.46 6.38-2.38 8.16-5.31 1.51-2.25 3.47-4.13 5.59-5.8 1.04-7.95 7.05-13.97 12.81-19 2.75-2.28 0.91-6.74 3.56-9.13 3.8-4.23 6.63-9.21 10.87-13.05 1.79-3.39 2.53-7.5 5.81-9.96 0.34-0.96 0.67-1.91 1.01-2.86 3.15-2.65 6.16-5.5 8.58-8.85 5.71-7.76 11.92-15.21 19.12-21.63 1.72-1.48 2.92-3.41 4.26-5.22 2.25-3.29 6.27-4.79 8.45-8.16 5.45-7.65 13.67-12.58 21.57-17.32 8.96-5.41 16.97-12.4 26.63-16.6 4.27-2.15 8.99-3.39 12.97-6.09 4.64-3.65 10.33-5.49 15.19-8.77 9.83-3.89 19.22-8.77 28.77-13.27 17.83-8.58 36.55-15.23 55.57-20.6 6.35-2.37 12.81-4.48 19.38-6.13 12.48-2.44 24.36-7.27 36.87-9.55 6.47-2.27 13.24-3.37 19.96-4.62 5.8-1.33 11.66-2.44 17.59-3.03z"/>
 <g fill="#252524">
  <path id="path10" d="m407.61 398.95c8.12-0.89 16.32-0.91 24.46-0.31 7.15 0.74 14.48 1.98 20.76 5.68 12.32 6.35 23.86 14.48 33.23 24.74 9.98 14.58 13.29 32.56 14.26 49.89-0.07 7.41-1.22 14.77-1.24 22.2-0.99 8.42-2.19 17.03-6.09 24.68-1.63 5.95-3.96 11.73-7.11 17.04-4.25 5.42-7.67 11.53-12.72 16.28-5.91 5.51-11.48 11.72-19.01 15.07-6.1 2.58-12.41 5.49-19.19 5.24-3.03-0.18-5.91 1.05-8.92 0.94-9.72-0.16-19.56 0.29-29.13-1.67-3.41-1.22-6.89-2.24-10.29-3.43-7.91-4.82-16.89-7.86-24.05-13.87-8.35-5.99-14.89-14.48-18.83-23.94-2.4-9.95-4.31-20.02-6.6-30-1.57-5.71-0.8-11.67-0.97-17.5 0.06-6-0.01-12.04 0.83-17.99 0.54-4.54 2.99-8.57 3.57-13.09 0.5-4.59 3.52-8.36 4.66-12.78 2.46-5.94 4.19-12.5 8.68-17.31 3.08-3.89 4.85-8.95 9.13-11.8 6.85-4.3 13.62-8.81 21.03-12.1 7.43-3.36 15.5-4.93 23.54-5.97z"/>
  <path id="path12" d="m541.01 403.22c18.6-0.34 37.22 0.92 55.79-0.14 11.64 1.38 23.39-3.51 34.89-0.3 5.37 0.51 11.66-1.79 15.94 2.71 2.85 6.02 2.18 13.2 0.41 19.47-1.56 4.9-4.61 10.44-10.16 11.4-4.04 0.44-7.84 2.17-11.93 2.29-4.75 0.15-9.48 0.34-14.21 0.68-5.89 27.74-4.02 56.3-7.59 84.31-0.81 6.76-1.17 13.61-0.65 20.42 0.3 2.94-0.57 5.82-0.87 8.74-0.56 5.14-0.61 10.44-2.45 15.34-1.04 3.13-4.26 4.51-6.91 6.01-2.86 1.42-5.63 3.02-8.6 4.17-3.16 0.61-6.35 1.11-9.56 1.43-3.57 0.44-6.72-1.76-10.22-2.09-4.94-0.59-9.24-3.81-11.93-7.88-2.46-4.46-2.87-9.69-3.25-14.67-0.69-19.05 0-38.11 0.05-57.16 0.61-4.66 0.1-9.32-0.02-13.98 1.61-11.58 0.05-23.31 1.55-34.89 0.4-3.08 0.54-6.18 0.45-9.28-9.52-0.96-19.15 0.23-28.64-1-3.6-0.24-6.48-2.53-8.46-5.37 0.05-8.12-1.68-17.36 3.41-24.4 5.68-6.48 15.13-5.75 22.96-5.81z"/>
  <path id="path14" d="m735.95 403.92c9.65-0.82 19.34-0.25 29.02-0.53 8.97-0.38 18.11-0.53 26.89 1.61 2.77 1.21 6.54 2.46 6.94 5.95 1.82 8.45-0.18 17.41-3.61 25.18-3.9 3.95-9.99 3.9-15.16 4.31-5.71 0.63-11.36-1.03-17.04-0.29-7.01 0.21-13.99-1.19-21-0.57-12.12 1.2-24.36 1.09-36.42 2.97-1.25 8.94-1.42 17.98-1.5 27 8.33 0.65 16.65-0.39 24.96-0.76 13.64-0.32 27.31-1.01 40.94-0.15 5.37-0.02 12.39-1.61 16.16 3.35 3.14 5.91 2.12 12.94 0.81 19.23-0.9 3.17-1.44 6.62-3.28 9.41-2.44 2.05-5.36 3.72-8.59 3.99-10.63 1.62-21.44 0.69-32.11 1.89-14.02-1.51-28.15-0.91-42.2-0.04-1.38 10.99-1.95 22.08-1.46 33.14 21.53-0.38 43.08-2.55 64.62-0.88 2.76 0.35 5.39-0.62 8.07-1.08 4.35 0.28 8.62 1.54 13.02 1.14 2.3-0.29 3.76 1.89 5.49 3.04 1.94 9.03 0.86 18.37-1.07 27.31-1.16 4.91-3.03 11.19-8.56 12.57-10.96 2.03-22.14-1.24-33.14 0.64-0.25 0.3-0.75 0.91-1 1.21-8.09-2.52-16.71-1.89-25.05-2.67-10.85-0.5-21.76-0.16-32.51-1.96-6.08-1.23-12.15 1.59-18.2 0.2-8.06-1.95-13.86-9.89-14.16-18.03-0.08-3.35-0.36-6.69-0.36-10.03 1.06-17.69-0.55-35.43 0.77-53.1-0.04-15.02 0.24-30.03 0.49-45.04 0.61-10.27 1.18-20.94 5.77-30.35 2.43-5.3 7.11-9.02 11.38-12.79 3.23-2.95 7.79-3.33 11.95-3.51 16.37-0.96 32.82-0.56 49.14-2.36z"/>
  <path id="path16" d="m283.93 408.99c9.02-1.14 18.09-0.18 27.12-1.09 4.68 0.12 10.42 0.36 13.36 4.6 2.85 7.82 2.89 16.63 0.5 24.58-1.42 4.78-6.02 7.85-10.72 8.81-11.38 2.29-23 0.61-34.49 0.7-0.99 5.63-1.62 11.41-0.84 17.11 0.92 6.11-0.73 12.2-0.64 18.33-0.86 10.3-0.06 20.69-1.54 30.95-0.91 5.43 0.14 10.93-0.65 16.38-1.15 7.82-0.36 15.74-1.08 23.6-0.59 9.09-0.45 18.54-3.71 27.18-1.16 3.55-5.29 3.47-8.31 3.86-9.95 1.25-21.02 3.84-30.16-1.78-4.73-2.56-5.71-8.39-5.49-13.28 0.52-7.99-0.31-15.98 0.12-23.97 0.53-21.99 1.4-43.97 2.25-65.95-0.16-7.08 0.98-14.13 0.34-21.2-0.32-3.68-0.3-7.37-0.59-11.04-7.87-0.01-15.74-0.13-23.59 0.47-6.53 0.1-14.17 0.03-18.92-5.21-1.92-8.89-4.47-18.48-0.44-27.21 3.14-2.5 5.96-6.36 10.45-6.02 6.34 0.63 12.68 0.05 19.03-0.25 11.33 0.12 22.66 0.36 33.97 0.85 11.32-1.47 22.7 0.89 34.03-0.42z"/>
 </g>
 <path id="path18" fill="#fefefe" d="m409.67 442.08c9.58-2.73 20.07-1.65 29.33 1.75 9.43 7.06 15.45 18 18.51 29.22 2.7 9.4 2.17 19.34 0.83 28.92-1.21 8.74-5.26 16.83-10.48 23.85-2.74 3.86-7.48 5.24-11.42 7.48-5.68 3.21-11.66 6.24-18.27 6.77-9.85 0.31-19.41-3.14-28.33-7.01-4.74-1.82-7.88-5.97-11.47-9.33-8.72-11.28-7.75-26.48-4.96-39.67 2.68-11 6.6-22.54 15.34-30.25 6.17-5.12 13.19-9.43 20.92-11.73z"/>
</svg>
