<?xml version="1.0" encoding="UTF-8" standalone="no"?>
<svg id="svg2" xmlns:rdf="http://www.w3.org/1999/02/22-rdf-syntax-ns#" xmlns="http://www.w3.org/2000/svg" height="59.054" width="873.6" version="1.1" xmlns:cc="http://creativecommons.org/ns#" xmlns:dc="http://purl.org/dc/elements/1.1/" viewBox="0 0 873.60217 59.054008">
 <defs id="defs4">
  <clipPath id="a">
   <path id="path7" d="m0 594h738v-594h-738v594z"/>
  </clipPath>
 </defs>
 <g id="g9" transform="matrix(1.25 0 0 -1.25 -28.772 420.75)" clip-path="url(#a)">
  <path id="path11" fill="#1f1f1f" d="m37.31 324.02-0.525 0.02-0.824-0.16-0.8 0.03-0.7-0.383-0.78-0.192-0.61-0.515-0.65-0.44-0.53-0.584-0.1 0.62-0.15 0.613-0.07 0.09c-0.92 2.23-4.06 1.78-6.45 1.28-1.57-0.33-2.24-1.7-2.08-3.18 0.15-1.33 0.31-2.64 0.44-3.95v-0.1l0.02-0.09c0.06-0.61 0.11-1.22 0.15-1.84l-0.08-0.53 0.12-0.81 0.04-0.59 0.01-0.25-0.25-0.79 0.15-0.82 0.04-0.82 0.05-0.82-0.09-0.82-0.15-0.82 0.11-0.82-0.11-0.82 0.06-0.81 0.05-0.82-0.09-0.82 0.13-0.81-0.06-0.81 0.08-0.82-0.02-0.82 0.02-0.82-0.2-0.82 0.13-0.82 0.22-0.81-0.32-0.82 0.26-0.82-0.23-0.82 0.03-0.82-0.05-0.41c-0.12-0.19-0.2-0.42-0.23-0.69-0.29-3.06 3.71-2.78 5.67-2.62 1.2 0.1 2.4-0.11 3.3 1.12l0.03 0.06 0.36 0.21 0.2 0.66-0.08 0.8 0.15 0.8 0.01 0.8-0.03 0.79-0.05 0.8 0.03 0.8-0.03 0.8 0.21 0.8-0.04 0.8-0.12 0.8v0.79l-0.2 0.8 0.13 0.8 0.2 0.8 0.04 0.81-0.1 0.72-0.13 0.71 0.23 0.84-0.28 0.85 0.18 0.83 0.05 0.84 0.13 0.83-0.01 0.85 0.24 0.71 0.07 0.73 0.34 0.56c0.37 0.51 0.81 0.96 1.37 1.29 1.19 0.71 2.69 0.29 3.99 0.53 0.97 0.18 1.46 1.15 1.88 1.92 0.7 1.3 2.04 2.69 2.22 4.2 0.34 2.84-2.74 3.37-5.83 2.87m27.41-11.5c-4.19 0.01-8.39 0.04-12.58 0.05 3.63 3.06 9.33 3.38 12.59-0.05m10.179-5.65l0.007 0.804-0.15 0.794 0.124 0.813-0.03 0.81-0.16 0.8-0.31 0.76-0.06 0.82-0.34 0.74-0.36 0.73-0.45 0.68-0.26 0.76-0.46 0.66-0.38 0.7-0.17 0.86-0.55 0.6-0.5 0.64-0.63 0.52-0.15 0.11c-3.93 5.08-11.47 6.03-17.55 3.81h-0.03l-0.07-0.04c-0.46-0.17-0.92-0.35-1.36-0.56l-0.09-0.02-0.09-0.07c-1.14-0.54-2.19-1.22-3.13-2l-0.2-0.11-0.09-0.13c-0.19-0.16-0.4-0.31-0.57-0.49-0.1-0.09-0.18-0.2-0.24-0.31l-0.29-0.16-0.65-0.52-0.37-0.69c-0.3-0.34-0.57-0.69-0.83-1.04l-0.28-0.25-0.06-0.21c-1.93-2.82-2.81-5.95-2.82-9.58 0-0.31 0.09-0.58 0.23-0.8-0.02-0.91 0.07-1.83 0.39-2.82 0.16-0.48 0.35-0.94 0.57-1.37v-0.19l0.27-0.76 0.46-0.67 0.34-0.72 0.16-0.83 0.62-0.56 0.44-0.67 0.39-0.72 0.56-0.58 0.5-0.65 0.76-0.41 0.67-0.48 0.57-0.61 0.71-0.42 0.59-0.63 0.82-0.24 0.72-0.42 0.74-0.41 0.87-0.06 0.77-0.32 0.8-0.26 0.85-0.03 0.81-0.27 0.83-0.08 0.78 0.2h0.58l0.31-0.01 0.85-0.18 0.73 0.3 0.18 0.02 0.77-0.15 0.84 0.13 0.86 0.04 0.77 0.41 0.82 0.19 0.87 0.07 0.67 0.59 0.88 0.09 0.74 0.33 0.65 0.49 0.61 0.52c0.3 0.18 0.58 0.35 0.86 0.54 1.42 0.96 3.8 2.39 3.31 4.46-0.51 2.16-4.93 2.99-6.59 3.43-0.66 0.18-1.31-0.1-1.63-0.6l-0.29-0.29-0.64-0.47-0.55-0.64-0.88-0.05-0.67-0.47-0.81-0.08-0.79-0.12-0.79-0.16-0.8-0.12-0.79 0.15-0.79 0.04-0.77 0.15-0.84-0.03-0.68 0.46-0.78 0.26-0.56 0.6-0.66 0.52-0.4 0.75-0.61 0.6-0.29 0.79-0.1 0.38c4.87-0.07 9.72-0.44 14.59-0.61 1.67-0.06 7.26-1.04 8.47 0.99l0.1 0.2 0.25 0.06 0.26 0.66 0.05 0.71 0.12 0.7-0.15 0.02zm22.71-4.99c-2.144-1.22-5.25-0.256-7.443 0.265-0.81 0.194-1.42 0.592-1.876 1.116v0.01l-0.41 0.64-0.22 0.73-0.23 0.72-0.22 0.74-0.07 0.2c-0.06 0.49-0.09 1-0.09 1.51l0.21 0.69-0.17 0.63 0.04 0.55 0.26 0.56 0.22 0.85 0.43 0.77 0.46 0.74 0.53 0.7 0.6 0.56 0.75 0.36 0.64 0.5 0.83 0.1 0.52 0.23 0.16 0.03c0.17 0.03 0.34 0.03 0.52 0.05l0.34-0.01 0.79 0.03 0.06 0.03c0.88-0.01 1.77-0.07 2.62-0.11l0.46-0.49 0.69-0.41 0.69-0.43 0.35-0.19c0.32-0.44 0.57-0.94 0.84-1.38 0.22-0.37 0.49-0.75 0.73-1.14v-0.03l0.28-0.81 0.23-0.37c0.02-0.11 0.04-0.22 0.05-0.33s0.03-0.21 0.05-0.31c-0.24-2.99-1.03-5.89-3.58-7.34m13.65-8.87c-0.48 2.83-0.63 5.73-0.76 8.63l0.01 0.15-0.02 0.09c-0.03 0.8-0.07 1.59-0.11 2.39l0.22 0.79 0.01 0.82-0.26 0.82-0.17 0.8v0.03l0.19 0.81 0.15 0.82-0.01 0.82-0.26 0.82 0.29 0.82 0.06 0.82-0.39 0.82 0.35 0.82-0.39 0.82 0.42 0.82-0.03 0.82-0.39 0.82 0.16 0.82 0.06 0.82 0.17 0.82 0.06 0.82-0.09 0.82-0.33 0.8 0.01 0.05 0.5 0.79-0.32 0.53c0.43 3.06 0.79 6.14 0.94 9.19 0.05 1.02-0.27 1.71-0.8 2.18-0.51 1.06-1.55 1.7-2.85 1.75-1.47 0.05-3.06 0.07-4.52-0.04-1.34-0.1-2.01-0.74-2.45-1.68-0.18-0.26-0.31-0.59-0.39-1.03l-0.03-0.1c-0.08-0.26-0.08-0.52-0.04-0.77-0.2-3.72 0.55-7.65 0.69-11.36-0.87 0.38-1.72 0.71-2.55 1.01l-0.28 0.17-0.66 0.5-0.84-0.09-0.07 0.02-0.67 0.35-0.79 0.08-0.78 0.16-0.79 0.04h-0.1c-1.29 0.15-2.62 0.15-4.04-0.04-2.63-0.19-4.96-1.11-6.3-3.28-0.07-0.12-0.12-0.23-0.16-0.35l-0.27-0.28-0.44-0.76-0.65-0.5-0.41-0.7-0.7-0.5-0.44-0.7-0.12-0.86-0.45-0.67-0.53-0.65-0.25-0.78-0.06-0.83-0.11-0.8-0.22-0.77 0.03-0.82-0.42-0.75-0.12-0.8 0.2-0.82-0.25-0.8 0.1-0.86 0.14-0.84-0.15-0.88 0.34-0.81 0.37-0.79 0.14-0.84-0.04-0.91 0.54-0.72 0.05-0.91 0.43-0.75 0.62-0.64 0.5-0.69 0.45-0.73 0.48-0.71 0.588-0.63 0.13-0.17c0.08-0.13 0.17-0.26 0.25-0.39 1.02-1.67 2.17-3 3.93-3.53 2.11-1.09 4.95-0.96 7.29-0.88 2.84 0.1 5.32 1.15 7.35 2.84v-1.07c0-0.85 0.61-1.42 1.42-1.55 2.43-0.37 5.26-0.03 7.7 0.21 0.84 0.09 1.19 1.04 1.07 1.74m13.86 19.69 0.19 0.24 0.6 0.74 0.61 0.72-0.12 0.16 0.82 0.36 0.85 0.25 0.81 0.3 0.77 0.53 0.89 0.1 0.9-0.06 0.81-0.03 0.83 0.03 0.72-0.47 0.79-0.152 0.74-0.312 0.6-0.55 0.56-0.58 0.57-0.54 0.74-0.44 0.14-0.39c-4.28 0.04-8.55 0.13-12.82 0.1m22.82-4.21-0.18 0.79-0.27 0.77 0.02 0.81-0.34 0.75 0.03 0.84-0.31 0.75-0.26 0.76-0.44 0.69-0.31 0.73-0.14 0.84-0.46 0.67-0.18 0.22c-1.68 3.58-4.11 6.42-8.69 7.11-4.41 0.66-8.18 0.31-11.574-1.22l-0.14-0.01-0.72-0.38-0.78-0.265-0.64-0.52-0.66-0.46-0.75-0.35-0.6-0.543-0.7-0.44-0.49-0.66-0.12-0.21c-1.68-1.39-3.03-3.03-3.46-5.18l-0.07-0.07 0.016-0.29c-0.04-0.24-0.07-0.49-0.08-0.74l-0.41-0.55 0.06-0.86-0.18-0.79-0.09-0.81-0.29-0.79 0.19-0.83-0.19-0.81 0.17-0.8-0.15-0.81 0.01-0.81 0.07-0.81 0.44-0.734 0.25-0.764 0.25-0.76 0.14-0.8 0.12-0.39c-0.01-0.17 0.01-0.35 0.08-0.56 1.45-4.29 6.14-7.54 10.38-8.75 1.79-0.5 3.4-0.62 4.93-0.47l0.055-0.03 0.85 0.11 0.85 0.01 0.84 0.15 0.83 0.21 0.82 0.21 0.84 0.07 0.84 0.13 0.74 0.44 0.82 0.22 0.71 0.44 0.73 0.32 0.76 0.31 0.71 0.4 0.49 0.68 0.6 0.525 0.03 0.03c0.77 0.51 1.48 1.11 2.07 1.84 3.26 4.03-3.2 5.24-5.97 5.3-0.34 0.01-0.62-0.08-0.84-0.23l-0.17-0.01-0.65-0.48-0.65-0.48-0.72-0.37-0.65-0.49-0.73-0.34-0.82-0.08-0.76-0.26-0.8-0.14-0.81 0.07-0.78 0.16-0.79 0.04-0.79 0.09-0.8 0.1-0.715 0.36-0.69 0.39-0.75 0.33-0.43 0.754-0.58 0.59-0.28 0.78-0.527 0.66-0.06 0.18c3.81 0.31 7.67 0.45 11.53 0.51l0.1-0.03 0.17 0.04c0.46 0 0.91 0.01 1.37 0.02l0.16-0.03 0.2 0.04c1.84 0.02 3.68 0.04 5.51 0.05l0.22-0.06 0.84 0.07h0.87l0.86-0.16 0.85 0.24 0.51 0.3 0.41 0.49 0.05 0.71-0.01 0.71-0.06 0.02 0.1 0.8 0.04 0.81zm19.94 12.78c-0.21 0.97-0.83 1.59-1.67 1.99l-0.15 0.19-0.45 0.05c-0.85 0.27-1.86 0.36-2.89 0.38-0.027 1.38 0.13 2.88 1.15 3.41l0.65 0.08 0.77-0.33 0.783-0.21 0.29 0.09c0.72-0.16 1.25 0.518 1.41 1.12 0.69 2.63 0.43 5.82-2.22 7.27-0.95 0.52-1.88 0.8-2.79 0.89-3.21 0.62-7.33-0.67-9.21-3.29-1.74-2.44-0.75-6.07-0.6-8.87-2.19 0.17-4.4 0.06-5.23-1.34-0.87-1.48-1.13-5.58 0.13-6.93 0.92-0.99 2.16-0.89 3.38-0.79l0.08 0.01c0.35-0.06 0.76-0.09 1.23-0.09v-0.09c0.11-4.21 0.31-8.43 0.31-12.64-0.74-2.772-0.49-5.89-0.36-8.71l0.02-0.11c-0.13-0.8 0.31-1.71 1.33-1.75 2.8-0.09 9.38-1.8 9.12 2.68-0.16 2.8-0.32 5.6-0.46 8.4l0.01 0.05-0.02 0.17c-0.03 0.75-0.08 1.49-0.11 2.24l0.02 0.09-0.024 0.07c-0.03 0.49-0.04 0.98-0.06 1.47l0.03 0.13-0.06 0.26-0.06 1.52 0.24 0.72-0.1 0.83-0.22 0.69-0.03 0.97 0.29 0.83v0.84l-0.06 0.83-0.12 0.51c1.21-0.01 2.41 0 3.6 0.05 2.73 0.1 2.5 4.46 2.1 6.32m13.73-21.1-0.11 0.82-0.03 0.82-0.03 0.82-0.04 0.82 0.13 0.82-0.07 0.82-0.11 0.81v0.02l0.2 0.81-0.19 0.81v0.03l0.2 0.8-0.11 0.82 0.13 0.82-0.15 0.83 0.04 0.82 0.12 0.82-0.11 0.82 0.09 0.827-0.09 0.81v0.01l0.11 0.81-0.09 0.64c0 0.22 0.01 0.44 0.01 0.66l0.03 0.35 0.07 0.825-0.01 0.82-0.02 0.82 0.13 0.83-0.16 0.83 0.024 0.83-0.36 0.59-0.59 0.26-0.83 0.08-0.78-0.05-0.2 0.03-2.02 0.06-0.32 0.09-0.64-0.07c-0.57 0.008-1.15-0.01-1.73-0.03h-0.13l-0.1-0.012c-0.34-0.01-0.68-0.03-1.02-0.06-0.21-0.02-0.38-0.09-0.54-0.21-0.5-0.15-0.89-0.56-0.88-1.27 0.04-5.89 0.32-11.77 0.42-17.66 0.05-2.77-1.63-10.18 0.42-12.38 1.18-1.27 4.54-1.32 6.05-1.01 0.99 0.21 1.64 0.55 2.07 1.02 0.2 0.12 0.39 0.25 0.55 0.41l0.21 0.09 0.27 0.534 0.02 0.15c0.16 0.41 0.234 0.89 0.193 1.47-0.12 1.69-0.19 3.38-0.24 5.08l0.19 0.69zm-4.72 35.24-0.9 0.05-0.86-0.25-0.84-0.31-0.72-0.52-0.67-0.58-0.584-0.67-0.5-0.73-0.33-0.82-0.19-0.86-0.08-0.88 0.02-0.91 0.3-0.865 0.24-0.88 0.51-0.755 0.6-0.684 0.66-0.61 0.778-0.46 0.85-0.31 0.86-0.29 0.9-0.04 0.88 0.1 0.86 0.18 0.84 0.3 0.71 0.53 0.65 0.6 0.63 0.63 0.41 0.798 0.32 0.82 0.31 0.84-0.035 0.9-0.03 0.9-0.22 0.87-0.29 0.85-0.5 0.76-0.63 0.65-0.65 0.61-0.77 0.44-0.8 0.38-0.85 0.29-0.9-0.06zm38.16-34.91c0.12 3.46 0.16 6.89-0.07 10.34-0.03 0.47-0.07 0.94-0.12 1.4l0.03 0.1-0.07 0.19c-0.06 0.52-0.13 1.04-0.23 1.55l0.16 0.75-0.45 0.76-0.15 0.81-0.09 0.84-0.28 0.78-0.33 0.77-0.32 0.4c-2.55 6.28-11.65 6.53-17.254 2.37l-0.05 0.83-0.31 0.63-0.63 0.34-0.14 0.01-0.13 0.11c-1.03 0.65-1.97 0.54-3.14 0.57-2.13 0.05-5.26 0.52-5.253-2.52 0-0.15 0.02-0.29 0.05-0.43-0.12-1.79 0.07-3.58 0.31-5.35l-0.1-0.74 0.03-0.82-0.11-0.82 0.07-0.83 0.21-0.82-0.08-0.82-0.16-0.82 0.19-0.82-0.31-0.82 0.03-0.82 0.12-0.82 0.19-0.82-0.28-0.82 0.02-0.82 0.04-0.82 0.2-0.82-0.14-0.82 0.17-0.827-0.05-0.83-0.27-0.82-0.02-0.82-0.01-0.827 0.02-0.82 0.07-0.82-0.06-0.824 0.23-0.83 0.05-0.83-0.02-0.38c-0.33-0.85 0.09-2.04 1.26-2.06 1.87-0.03 8.57-1.74 8.55 1.82-0.05 6.1-0.05 12.17-0.01 18.26v0.01l0.11 0.88 0.42 0.76 0.58 0.64 0.53 0.67 0.75 0.49 0.76 0.48 0.88 0.19 0.89 0.18 0.86-0.05 0.8-0.31 0.65-0.48c2.54-2.21 1.11-10.71 1.11-13.62 0-2.21-1.5-8.93 0.86-10.44 0.61-0.39 1.85-0.58 3.18-0.6 2.95-0.47 5.74-0.26 6.26 3.12 0.35 2.29-0.13 5-0.05 7.34m15.52 11.71-0.18 0.03-0.11-0.03c-0.51-0.01-1.02-0.02-1.53-0.02l0.54 0.77 0.66 0.68 0.49 0.87 0.1-0.13 0.7 0.54 0.78 0.41 0.83 0.33 0.9 0.05 0.87 0.1 0.87 0.09 0.81 0.02 0.79-0.14 0.74-0.31 0.87 0.05 0.63-0.54 0.59-0.54 0.77-0.32 0.44-0.69 0.47-0.63 0.05-0.06c-3.69-0.03-7.36-0.41-11.04-0.52m21.21-5.36 0.18 0.81-0.04 0.81-0.32 0.78 0.08 0.82-0.38 0.75-0.13 0.79-0.01 0.82-0.21 0.78-0.4 0.71-0.3 0.74-0.41 0.69-0.33 0.73-0.21 0.82-0.7 0.5-0.4 0.7-0.39 0.73-0.78 0.37-0.5 0.68-0.53 0.67-0.74 0.41-0.72 0.42-0.59 0.64-0.75 0.39-0.82 0.23-0.78 0.29-0.75 0.38-0.85 0.08-0.79 0.28-0.84 0.04-0.83 0.09-0.81 0.25-0.84 0.1-0.84-0.22-0.81 0.14-0.8-0.11-0.81-0.09-0.798-0.15h-0.83l-0.79-0.18-0.77-0.29-0.74-0.33-0.76-0.29-0.79-0.24-0.53-0.7-0.79-0.26-0.74-0.36-0.49-0.68-0.73-0.4-0.6-0.56-0.47-0.69-0.65-0.53-0.34-0.78-0.48-0.66-0.44-0.69-0.42-0.71-0.424-0.71-0.35-0.75-0.24-0.79 0.03-0.86-0.46-0.73-0.13-0.81-0.01-0.83-0.05-0.82-0.16-0.81 0.22-0.82 0.01-0.8-0.21-0.82-0.01-0.81 0.42-0.76 0.16-0.78-0.04-0.84 0.42-0.72 0.05-0.84 0.63-0.61 0.21-0.78 0.44-0.67 0.46-0.65 0.28-0.79 0.74-0.44 0.42-0.69 0.63-0.5 0.5-0.67 0.64-0.52 0.354-0.19c1.56-1.72 3.68-2.94 6.4-3.43 6.76-1.21 15.01 0.94 18.69 7.05 0.53 0.87 0 1.81-0.84 2.19-1.53 0.7-5.29 2.82-7.08 1.99-1.62-0.75-2.61-2.13-4.35-2.75l-0.82 0.12-0.79-0.2-0.81-0.22h-0.56c-0.86 0.11-1.69 0.36-2.46 0.74l-0.07 0.04h-0.02c-1.74 0.88-3.166 2.4-3.75 4.24 7.25-0.08 14.88-0.88 22.03 0.21l0.29-0.05 0.73 0.23 0.07 0.44c0.19 0.34 0.2 0.76 0.08 1.16l0.13 0.54-0.13 0.02zm35.57 15.77c-0.93 1.73-3.52 1.51-5.42 1.39l-0.17 0.71 0.02 1.42 0.3 1.42-0.28 1.13c0.02 0.31 0.05 0.62 0.06 0.93l0.18 0.8-0.03 1.44 0.11 1.43-0.29 0.8-0.39 0.1c-0.51 0.73-1.39 1.08-2.8 1.2-1.72 0.14-5.13 0.56-5.95-1.45-0.48-1.16-0.25-2.32-0.25-3.54 0-2.16-0.31-4.33-0.33-6.5v-0.03c-0.76 0-1.52 0-2.28 0.03-0.88 0.03-1.79-0.01-2.44-0.67-0.61-0.61-0.65-1.54-0.67-2.33-0.02-1.03-0.25-2.03-0.21-3.06 0.105-2.82 2.81-3.06 5.41-2.91 0-5.17 0.04-10.32-0.23-15.48-0.1-1.93-0.57-4.92 0.387-6.89-0.05-0.76 0.39-1.56 1.35-1.56 2.49 0 8.82-1.59 8.94 2.45 0.08 2.42-0.3 4.82-0.41 7.24l0.09 0.99-0.12 0.92c0.04 4.02 0.31 8.02 0.393 12.04 0.4 0 0.81 0 1.19-0.02 2.214-0.16 3.43 0.73 3.74 2.91 0.13 0.92 0.02 1.83 0.2 2.76 0.15 0.77 0.25 1.61-0.14 2.34m29.63-23.83-0.24 1.5 0.18 1.51-0.21 1.5 0.03 1.5 0.23 1.5-0.27 1.51 0.21 1.51v1.51l-0.09 1.51-0.04 1.52-0.05 1.53-0.49 1.45-0.51 1.43-0.92 1.22-0.9 1.18h-0.03l-0.91 1.25-1.31 0.8-1.35 0.71-1.52 0.24-1.46 0.44-1.52-0.12-1.68 0.15-1.66-0.34-1.41-0.97-1.74-0.56-0.9-0.59c0.28 4.05 0.42 8.18-0.08 12.01-0.48 3.7-6.12 2.6-8.62 2.02-1.01-0.23-1.24-1.21-0.95-1.97l-0.13-1.44 0.02-1.52-0.23-1.51 0.36-1.52-0.36-1.51-0.036-1.52 0.19-1.52-0.08-1.51 0.11-1.52-0.07-1.52-0.1-1.52-0.015-1.52 0.34-1.5-0.19-1.52 0.12-1.51-0.05-1.52-0.3-1.52 0.25-1.52 0.1-1.52-0.22-1.52 0.26-1.52-0.14-1.52-0.23-1.52 0.235-1.52-0.04-1.53 0.26-1.53-0.11-1.53 0.23-0.54 0.55-0.18 1.47-0.13 1.49 0.04 1.49 0.06 1.49-0.01 1.49-0.06 0.15 0.02c0.23-0.03 0.46-0.05 0.69-0.1 0.53-0.12 0.78 0.2 0.987 0.65 0.31 0.7 0.38 1.55 0.2 2.32-0.23 6.38-1.54 13.47 1.45 19.32l0.01 0.04c0.74 0.44 1.53 0.77 2.41 0.98 2.15 0.5 3.37-1.41 4.22-2.98 0.25-0.45 0.45-0.92 0.65-1.39l0.04-1.65 0.05-0.71c-0.02-1.05-0.05-2.1-0.07-3.15l-0.29-0.97 0.24-0.98-0.03-1.03-0.22-0.88 0.18-1.04c-0.04-1.91-0.07-3.82-0.08-5.72l-0.12-0.44 0.11-0.4-0.01-0.36c0-0.54 0.17-0.89 0.4-1.1l0.05-0.18 0.58-0.43 1.47 0.17 1.47-0.28 1.47-0.02 1.48 0.11 1.48 0.11 0.51 0.41 0.37 0.51 0.03 1.5-0.24 1.5 0.41 1.51 0.01 1.5zm14.82 13.97c2.9 1.89 6.62 2.58 10.06 2.02l0.22-0.14 1.1-1.19 0.7-0.94c-4.02 0.09-8.04 0.21-12.06 0.25m21.744-2.42 0.06 1.07-0.42 1.48-0.61 1.4-0.75 1.32-0.73 1.33-0.81 1.28-1.02 1.13-1.11 0.98-1.12 0.99-1.33 0.68-1.33 0.66-1.35 0.65-1.43 0.42-1.47 0.31-1.5-0.05-1.48-0.07-1.44 0.1-1.43-0.14-1.39-0.37-1.39-0.39-1.35-0.48-1.27-0.7-1.3-0.63-0.93-1.14-1.23-0.79-0.87-1.18-1.03-1.08-0.56-1.36-0.83-1.22-0.474-1.38-0.28-1.43-0.5-1.39 0.13-1.48-0.13-1.44-0.11-1.44 0.34-1.4 0.06-1.45 0.69-1.29 0.31-1.41 0.79-1.2 0.792-1.18 0.85-1.14 0.93-1.08 1.08-0.99 1.18-0.88 1.26-0.76 1.292-0.69 1.35-0.61 1.41-0.5 1.48-0.21 1.5 0.08 1.47-0.2 1.42 0.02 1.4 0.19 1.4 0.17 1.32 0.51 1.34 0.36 1.29 0.53 1.42 0.73 1.24 1.02 1.38 0.86 1.06 1.21 0.92 1.32 0.16 0.78-0.51 0.63-1.32 0.45-1.19 0.73-1.34 0.43-1.16 0.8-1.32 0.48-0.89-0.28-1.216-0.85-1.27-0.71-1.29-0.7-1.47-0.14-1.45-0.02-1.4-0.07-1.39 0.21-1.29 0.56-1.06 0.9-0.88 1.04-0.87 1.05-0.506 1.24c0.61 0 1.21 0.01 1.81 0.01l1.21-0.14 1.51 0.03 1.07 0.12 4.19 0.03 0.82-0.1 0.68 0.11 1.91 0.02 0.46-0.058 1.52-0.1 0.457 0.07c1.77-0.13 3.77-0.35 5.48-0.13l0.18-0.01 1.53 0.06 0.98 0.99-0.04 0.2c0.72 1.11 0.37 2.9-0.37 4.72m26.44-1.37 0.22 0.77 0.33 0.71 0.4 0.67 0.1 0.86 0.54 0.61 0.567 0.57 0.47 0.12 0.73 0.45 0.81 0.31 0.82 0.28 0.75 0.51 0.84 0.27 0.9-0.05 0.83 0.37 0.89-0.16 0.87-0.06 0.78-0.39 0.76-0.37 0.87-0.25 0.64-0.59 0.676-0.54 0.6-0.65 0.77-0.38 0.47-0.17c0.14-0.16 0.32-0.26 0.55-0.26 3.05 0.05 9.06 1.53 7.14 5.85-0.46 1.03-1.36 1.86-2.46 2.54-2.89 4.32-8.03 5.51-13.14 4.81-2.74 0-5.43-0.71-8.26-2.24-3.88-2.08-7.3-5.807-8.32-10.13l-0.07-0.15-0.02-0.03-0.006-0.05c-1.33-2.97-1.27-6.11-0.22-8.94 0.28-1.25 0.7-2.42 1.25-3.51l0.09-0.42 0.42-0.69 0.27-0.76 0.32-0.75 0.45-0.67 0.49-0.65 0.72-0.42 0.52-0.65 0.82-0.35 0.75-0.44 0.64-0.34c0.5-0.34 1.02-0.65 1.55-0.94l0.06-0.04 0.03-0.01c6.1-3.23 14.12-3.16 19.83 1.39 0.85 0.68 1.6 1.49 2.19 2.35l0.1 0.11 0.54 0.6 0.58 0.57 0.02 0.66 0.04 0.38-0.01 0.82-0.03 0.12c0.07 1.73-0.93 3.27-3.72 3.96-2.18 0.54-3.81-0.104-5.47-1.43-1.61-1.28-3.5-2.06-5.47-2.35l-0.56 0.11-0.82-0.11-0.84-0.03-0.71 0.47-0.8 0.17-0.7 0.41-0.57 0.59-0.57 0.55-0.8 0.45-0.44 0.77-0.27 0.83-0.56 0.72 0.05 0.91-0.49 0.82-0.02 0.89 0.09 0.8 0.19 0.78zm35.79-0.75 0.08 0.22 0.05 0.59c0.22 1.15 0.62 2.23 1.24 3.16l0.2 0.18 0.11 0.26c0.31 0.4 0.67 0.76 1.09 1.08 0.16 0.12 0.27 0.314 0.34 0.54l0.05 0.06 0.83 0.2 0.78 0.23 0.74 0.36 0.8 0.21 0.83 0.13 0.83-0.11 0.81-0.21 0.76-0.34 0.76-0.27 0.87-0.14 0.46-0.76 0.61-0.53 0.61-0.61 0.59-0.65 0.474-0.76 0.23-0.86 0.14-0.87-0.143-0.88 0.04-0.853 0.09-0.87-0.2-0.86 0.1-0.93-0.59-0.72-0.28-0.82-0.564-0.66-0.31-0.89-0.69-0.49-0.61-0.58-0.81-0.27-0.75-0.36-0.83-0.13-0.82-0.03-0.82-0.27-0.82 0.14-0.8 0.18-0.79 0.21-0.8 0.21-0.714 0.41-0.54 0.64-0.75 0.39-0.56 0.69-0.49 0.74-0.38 0.8-0.22 0.86-0.26 0.843 0.163 0.9-0.23 0.53c0.02 0.33 0.05 0.65 0.08 0.97m23.5-1.46 0.12 0.86 0.12 0.86-0.25 0.84 0.08 0.87-0.375 0.8-0.02 0.88-0.21 0.84-0.25 0.82-0.55 0.7-0.12 0.9-0.63 0.63-0.356 0.795-0.5 0.71-0.5 0.71-0.47 0.75-0.09 0.04c-2.49 3.59-6.54 5.63-12.1 5.76-6.22 0.15-13.42-3.41-15.07-9.58l-0.3-0.25-0.3-0.76-0.22-0.79-0.11-0.81-0.11-0.8-0.23-0.77-0.18-0.79-0.34-0.78-0.05-0.81 0.11-0.82-0.08-0.814 0.36-0.78-0.23-0.84 0.24-0.79 0.07-0.81 0.54-0.69 0.13-0.8 0.38-0.71 0.18-0.8 0.42-0.69 0.32-0.75 0.364-0.73 0.56-0.6 0.4-0.72 0.624-0.53 0.71-0.44 0.46-0.67 0.63-0.49 0.64-0.48 0.66-0.45 0.54-0.65 0.72-0.37 0.695-0.42 0.78-0.26 0.82-0.105 0.72-0.37 0.75-0.3 0.77-0.25 0.37 0.04c6.05-1.73 12.46-0.22 16.23 5.552 1.07 1.64 1.85 3.37 2.34 5.15l0.26 0.48 0.3 0.82 0.17 0.86 0.22 0.85-0.005 0.89-0.19 0.88zm33-10.44c-0.07 0.55-0.13 1.1-0.18 1.66 0.6 4.09 0.6 8.26 0.39 12.38-0.19 3.655-0.58 8.89-3.59 11.47-4.24 3.63-11.165 3.03-15.64-0.14l-0.08 0.345-0.08 0.7h-0.09c-0.68 2.91-5.97 2.91-8.09 1.34h-0.126l-0.697-0.61-0.276-0.64c-0.2-0.22-0.35-0.55-0.35-1.05-0.03-7.63-0.38-15.25-0.377-22.88 0-2.296-0.94-8.665 3.004-8.685 2.07-0.01 7.29-0.83 7.575 2.34 0.02 0.17 0.01 0.33 0.02 0.5l0.01 0.02-0.01 0.13c0.03 0.58 0.06 1.15 0.06 1.73l0.13 0.59-0.16 0.73-0.01 0.2 0.06 0.7-0.15 0.62-0.02 0.28 0.14 0.7-0.14 0.81-0.03 0.81 0.05 0.81 0.03 0.81-0.05 0.81-0.13 0.81 0.16 0.81-0.09 0.81 0.12 0.81-0.05 0.81 0.01 0.81-0.23 0.81 0.27 0.82-0.32 0.8-0.05 0.84 0.46 0.68 0.08 0.79 0.67 0.5 0.42 0.606 0.5 0.54 0.61 0.68 0.83 0.36 0.84 0.37 0.92 0.02 0.85-0.04 0.83-0.24 0.77-0.41 0.55-0.7 0.44-0.75 0.33-0.8 0.19-0.83-0.1-0.87 0.27-0.83v-0.9l-0.17-0.86 0.24-0.52c-0.01-0.48-0.01-0.97-0.01-1.46l-0.16-0.58 0.07-0.8 0.09-0.54v-0.6l-0.07-0.477-0.08-0.805 0.04-0.81-0.03-0.81 0.12-0.43c0-0.24-0.01-0.49-0.02-0.75l-0.15-0.45 0.12-0.45c-0.07-1.64-0.17-3.41 0-5.02l-0.06-0.21 0.12-0.82 0.16-0.29c0.03-0.12 0.05-0.24 0.08-0.35 0.83-2.93 4.15-2.73 6.64-2.52 3.72 0.32 2.91 3.91 2.53 6.7m33.97 26.63-0.17 0.05c-0.14 0.23-0.35 0.4-0.66 0.47-2.34 0.5-6.03 1.52-8.07-0.19-0.12-0.09-0.2-0.23-0.27-0.39l-0.14-0.11-0.17-0.85-0.63-0.65-0.01-0.91-0.33-0.78-0.52-0.7-0.21-0.83-0.41-0.74-0.31-0.78-0.45-0.72-0.3-0.79-0.24-0.81-0.45-0.72-0.39-0.75-0.31-0.79-0.39-0.75-0.23-0.82-0.11-0.88-0.43-0.75-0.46-0.73-0.29-0.93-0.3 0.93-0.54 0.69-0.17 0.85-0.29 0.79-0.3 0.79-0.54 0.69-0.08 0.88-0.56 0.68-0.23 0.82-0.33 0.78-0.3 0.79-0.21 0.83-0.65 0.64-0.31 0.79-0.15 0.85-0.33 0.78-0.39 0.76-0.29 0.79-0.3 0.8-0.3 0.64c-0.1 0.51-0.38 0.92-0.82 0.94-0.71 0.78-1.66 1.25-2.78 1.35-1.87 0.17-5 0.48-5.75-1.67-0.44-0.61-0.23-1.87 0.18-2.32 0.2-0.21 0.38-0.44 0.56-0.68l0.17-0.49 0.33-0.76 0.48-0.69 0.33-0.75 0.16-0.82 0.41-0.72 0.1-0.86 0.34-0.76 0.39-0.73 0.49-0.69 0.17-0.82 0.24-0.79 0.37-0.74 0.46-0.7 0.45-0.71 0.1-0.86 0.42-0.72 0.16-0.83 0.28-0.78 0.5-0.68 0.33-0.75 0.44-0.7 0.27-0.79 0.36-0.74 0.32-0.76 0.28-0.78 0.18-0.82 0.54-0.67 0.29-0.78 0.27-0.78 0.32-0.77 0.16-0.83 0.49-0.68 0.25-0.47c0.13-0.91 0.37-1.85 0.94-2.54l0.03-0.09 0.07-0.02 0.05-0.06c1.09-1.11 2.63-1.09 4.09-1.09 0.91 0 1.57 0.41 2.06 1.03l0.33 0.16 0.1 0.5c0.08 0.16 0.16 0.33 0.23 0.5l0.44 0.47 0.02 0.88 0.44 0.71 0.33 0.76 0.49 0.68 0.07 0.86 0.36 0.74 0.45 0.71 0.37 0.74 0.06 0.87 0.6 0.64 0.28 0.78 0.41 0.73 0.08 0.86 0.4 0.73 0.26 0.79 0.29 0.77 0.41 0.72 0.47 0.7 0.09 0.86 0.3 0.77 0.62 0.62 0.37 0.74 0.28 0.78 0.15 0.83 0.44 0.71 0.36 0.74 0.36 0.75 0.23 0.8 0.42 0.72 0.08 0.87 0.38 0.74 0.48 0.694 0.42 0.72 0.04 0.89 0.55 0.67 0.06 0.22 0.13 0.14c0.21 0.264 0.37 0.67 0.41 1.08l0.06 0.1-0.08 0.96zm23.7-10.69-0.28-0.03-1.83 0.02-0.39 0.11-0.83 0.02-0.84-0.1-0.06-0.013c-0.53 0.01-1.06 0.01-1.59 0.02l-0.02 0.01h-0.18l-2.03 0.01-0.31 0.08-0.84-0.06-0.09-0.02c-1.06 0.01-2.12 0.02-3.18 0.02l0.38 0.7 0.58 0.76 0.79 0.55 0.04-0.04 0.56 0.76 0.9 0.17 0.81 0.32 0.85 0.19 0.85 0.278 0.89 0.02 0.82 0.01 0.81-0.08 0.8-0.18 0.74-0.36 0.64-0.5 0.75-0.31 0.73-0.4 0.53-0.63 0.52-0.63 0.3-0.73-0.82 0.04zm10.69-6.51c0.03 0.22 0.02 0.46-0.01 0.72l0.06 0.37-0.11 0.01c-0.02 0.1-0.06 0.21-0.09 0.32l0.19 0.5-0.16 0.8 0.03 0.81-0.45 0.75-0.02 0.8-0.27 0.76-0.04 0.82-0.29 0.75-0.18 0.78-0.23 0.78-0.44 0.68-0.27 0.77-0.52 0.63-0.62 0.55-0.35 0.74-0.56 0.57-0.57 0.56-0.61 0.56-0.46 0.75-0.18 0.13c-1.64 2.08-4.01 3.5-7.92 4-3.6 0.45-7.33-0.53-10.66-1.79-3.21-1.21-4.86-3.84-6.38-6.64l-0.11-0.09-0.4-0.72-0.11-0.32-0.37-0.69c-0.18-0.32-0.22-0.66-0.16-1.01l-0.22-0.3-0.22-0.79-0.08-0.82-0.39-0.77-0.07-0.83 0.1-0.84 0.08-0.82-0.11-0.81 0.1-0.8-0.09-0.81 0.1-0.79 0.1-0.79 0.18-0.78 0.29-0.75 0.16-0.78 0.3-0.74 0.3-0.74 0.23-0.78 0.59-0.59 0.36-0.71 0.51-0.62 0.5-0.62 0.31-0.8 0.69-0.46 0.61-0.55 0.51-0.67 0.73-0.42 0.62-0.57 0.74-0.39 0.75-0.37 0.76-0.34 0.83-0.15 0.78-0.25 0.74-0.43 0.81-0.18 0.85 0.03 0.8-0.23 0.8-0.32 0.84 0.14 0.83 0.13 0.85-0.07 0.84 0.1 0.86-0.12 0.82 0.25 0.86-0.01 0.82 0.21 0.85 0.1 0.78 0.34 0.76 0.38 0.79 0.31 0.78 0.25 0.59 0.59 0.69 0.41 0.51 0.64 0.63 0.48 0.56 0.55 0.75 0.38 0.37 0.73 0.6 0.54 0.42 0.68 0.14 0.71-0.39 0.73-0.84 0.25-0.77 0.4-0.77 0.39-0.88 0.17-0.74 0.46-0.81 0.32-0.77 0.41-0.73 0.5-1.08-0.25-0.6-0.54-0.65-0.46-0.71-0.38-0.75-0.29-0.72-0.33-0.71-0.4-0.76-0.33-0.83-0.05-0.82 0.07-0.79 0.1-0.78 0.1-0.8 0.05-0.76 0.24-0.65 0.49-0.8 0.19-0.64 0.49-0.62 0.57-0.54 0.64-0.39 0.74-0.42 0.72-0.09 0.42c7.04-0.02 14.08-0.12 21.13-0.12 1.02 0 1.72 0.22 2.15 0.61l0.24 0.02 0.32 0.76-0.06 0.33zm19.57 17.28-0.79 0.37-0.79 0.458-0.88 0.18h-0.889l-0.91-0.01-0.91-0.12-0.87-0.29-0.82-0.39-0.71-0.58-0.71-0.53-0.494-0.41c-0.097 0.34-0.25 0.62-0.44 0.88l-0.06 0.4-0.448 0.13c-0.686 0.536-1.623 0.8-2.64 0.89-1.16 0.1-2.71-0.02-3.75-0.72l-0.18 0.015-0.65-0.27-0.01-0.06c-0.203-0.11-0.363-0.38-0.363-0.81 0-0.96 0.01-1.92 0.01-2.88l-0.05-0.18 0.01-0.82 0.05-0.62 0.01-2.04-0.07-0.63 0.05-0.82 0.02-0.14c0.01-1.2 0.01-2.4 0.02-3.6l-0.08-0.38-0.05-0.82 0.14-0.59 0.035-5.58-0.08-0.4 0.09-0.29 0.002-0.51c0-1.05-0.79-6.17-0.03-8.83l-0.11-0.27 0.32-0.32c0.233-0.51 0.56-0.87 1.01-0.98 2.14-0.54 5.83-0.85 7.68 0.46l0.06 0.07 0.14 0.02 0.005 0.14c0.41 0.58 0.42 1.76 0.25 3.1l0.01 0.06-0.02 0.06c-0.05 0.36-0.1 0.72-0.17 1.09l0.19 0.56-0.04 0.86 0.09 0.85-0.14 0.43c0.21 6.8-0.33 15.88 4.55 16.09l0.31-0.2 0.84-0.04 0.41 0.66 0.24 0.82 0.27 0.8 0.36 0.77 0.21 0.83 0.34 0.78 0.4 0.76 0.15 0.85 0.33 0.79 0.11 0.63-0.56 0.29zm23.1-22.6-0.23 0.82 0.07 0.86 0.04 0.87-0.36 0.81-0.08 0.88-0.54 0.71-0.24 0.84-0.44 0.75-0.52 0.7-0.78 0.46-0.47 0.78-0.84 0.33-0.65 0.59-0.74 0.47-0.73 0.46-0.7 0.54-0.94 0.1 0.05 0.1-0.57 0.56-0.77 0.18-0.75 0.21-0.65 0.41-0.03-0.043-0.61 0.53-0.74 0.26-0.48 0.54-0.03-0.022-0.08 0.46 0.23 0.53 0.11 0.06c1.27-0.16 2.48-0.46 3.68-1.02 0.68-0.32 1.65-1.26 2.54-1.34l0.16-0.14 0.21 0.17c1.69 0.37 2.54 1.31 3.62 2.69 0.43 0.54 0.81 1.158 1.1 1.79l0.24 0.41 0.33 0.48-0.16 0.4c0.23 1.28-0.11 2.56-1.57 3.47-6.32 3.96-17.74 3.14-19.32-5.22l-0.25-0.49 0.11-0.63c-0.01-0.105-0.03-0.21-0.03-0.32l0.02-0.23-0.09-0.514 0.2-0.84-0.11-0.88 0.13-0.86 0.44-0.76 0.45-0.73 0.51-0.68 0.44-0.73 0.45-0.67 0.47-0.67 0.62-0.52 0.81-0.27 0.44-0.75 0.69-0.42 0.73-0.36 0.77-0.28 0.75-0.28-0.02-0.06 0.81-0.46 0.72-0.64 0.84-0.42 0.05 0.12 0.74-0.5 0.91-0.23 0.46-0.81 0.63-0.95-0.61-0.81-0.72-0.71h-1.01l-0.99 0.03-0.87 0.45-0.9 0.36-0.74 0.54-0.68 0.6-0.74 0.52-0.52 0.74-0.77 0.24-0.04-0.03c-0.15 0.18-0.35 0.23-0.58 0.01-1.7-1.64-4.09-2.9-4.98-5.2-0.16-0.44 0.04-1.06 0.32-1.3l0.17-0.27c1.56-3.5 6.13-5.54 10.17-5.7 2.94-0.46 6 0.14 8.45 1.94 1.38 1.02 2.21 2.42 2.63 3.99l0.07 0.16 0.49 0.68 0.35 0.75 0.21 0.8 0.22 0.8-0.02 0.84zm13.37 3.88c-0.08 0.43-0.15 0.87-0.22 1.31-0.17 1.68-0.14 3.38 0.08 5.09 0.22 0.98 0.58 1.91 1.14 2.738l0.3 0.25 0.59 0.55 0.71 0.38 0.74 0.33 0.8 0.13 0.79 0.146 0.8 0.16 0.83-0.03 0.79-0.28 0.82-0.11 0.82-0.18 0.66-0.51 0.73-0.4 0.45-0.727 0.75-0.51 0.57-0.7 0.34-0.833 0.21-0.86 0.2-0.86 0.12-0.88-0.15-0.88-0.06-0.78 0.09-0.79-0.07-0.79-0.3-0.73-0.36-0.7-0.44-0.65-0.42-0.64-0.34-0.74-0.78-0.36-0.44-0.8-0.86-0.16-0.67-0.57-0.83-0.15-0.84-0.08-0.83-0.01-0.81 0.17-0.77 0.23-0.3 0.08c-1.67 1.19-3.02 2.57-3.85 4.15m22.19-6.77l0.03 0.106-0.06 0.82-0.15 0.67-0.02 0.21c-0.005 0.17-0.045 0.31-0.095 0.43l-0.05 0.33 0.094 0.82-0.09 0.82 0.14 0.82-0.01 0.82 0.02 0.82-0.02 0.82-0.11 0.82 0.07 0.82-0.02 0.82 0.01 0.825 0.13 0.82-0.24 0.82 0.07 0.83-0.06 0.82-0.01 0.82 0.29 0.82-0.18 0.83-0.02 0.82 0.18 0.83-0.11 0.83 0.12 0.83-0.05 0.83-0.02 0.82-0.02 0.83-0.19 0.83-0.01 0.83 0.2 0.83-0.28 0.64-0.65 0.34-0.83 0.05-0.83-0.08-0.83 0.02-0.83-0.01-0.83 0.09-0.83-0.02-0.84-0.13-0.83-0.01-0.84 0.17-0.67-0.37-0.14-0.67-0.13-0.64 0.1-0.66-0.02 0.01-0.69 0.68-0.9 0.3-0.82 0.36-0.78 0.43-0.71 0.36-0.75 0.24-0.76 0.18-0.75 0.34-0.79 0.14-0.55-0.08c-3.02 0.69-6.09 0.59-8.7-1.4-1.19-0.91-2.19-1.97-3.04-3.12l-0.01-0.01-0.52-0.64-0.4-0.73-0.42-0.69-0.44-0.68-0.61-0.59-0.31-0.76-0.17-0.8-0.16-0.8-0.39-0.72-0.02-0.82-0.32-0.75v-0.81l-0.39-0.76 0.13-0.82-0.14-0.8-0.16-0.8 0.02-0.86 0.37-0.83-0.04-0.85 0.09-0.85 0.1-0.85 0.29-0.81 0.29-0.8 0.27-0.8 0.22-0.84 0.46-0.73 0.56-0.67 0.45-0.72 0.39-0.77 0.49-0.71 0.76-0.47 0.53-0.67 0.5-0.72 0.73-0.47 0.61-0.63 0.74-0.45 0.79-0.37 0.84-0.25 0.79-0.33 0.85-0.15 0.76-0.45 0.83-0.22 0.88 0.12 0.83-0.28 0.86 0.21 0.88-0.21 0.87 0.08 0.88 0.08 0.78 0.51 0.9-0.01 0.82 0.32 0.85 0.37 0.72 0.58 0.78 0.48 0.88 0.51 0.03-1.22 0.24-0.52 0.47-0.28c0.55-0.75 1.06-1.05 2.01-1.18 1.39-0.19 5.3-0.56 6.23 0.94 0.98 1.6 0.64 3.86 0.37 5.85m20.85 21.52c-0.09 1.42 0.05 2.86-0.92 3.91v0.03l-0.04 0.01c-0.11 0.11-0.22 0.22-0.35 0.33-0.81 0.61-2.26 0.46-3.16 0.47-0.18 0-0.36 0.01-0.53 0.02 0.08 1.38 0.13 2.77 0.18 4.15 0.28 1.03 0.67 2.04 0.62 3.12-0.12 2.75-2.04 4.09-4.65 4.34-1.47 0.15-2.89-0.07-3.92-0.77-0.22-0.02-0.44-0.04-0.66-0.08-1.06-0.21-1.25-1.16-1.1-2.05l-0.05-0.1 0.04-0.83 0.1-0.83 0.09-0.43c0-0.96 0.06-1.94 0-2.88v-0.17l-0.27-0.68v-0.84l0.16-0.84-0.12-0.84 0.02-0.06c-1.74 0.06-4.14 0.51-4.48-1.81-0.37-2.48-0.13-5.73 1.03-7.99 0.16-0.3 0.33-0.35 0.47-0.26 0.08-0.04 0.17-0.07 0.26-0.1 0.95-0.23 1.82-0.14 2.77-0.06l0.05-0.39 0.25-0.83-0.17-0.83-0.13-0.82-0.1-0.83 0.28-0.83-0.01-0.82-0.15-0.83-0.14-0.82 0.47-0.83-0.49-0.82 0.38-0.82 0.08-0.82-0.02-0.82-0.39-0.82 0.02-0.83-0.03-0.83-0.04-0.83 0.27-0.82-0.11-0.83-0.17-0.83 0.18-0.82 0.23-0.83-0.42-0.83 0.47-0.83v-0.83l0.01-0.67 0.67-0.09 0.83-0.11 0.83 0.03 0.83-0.17 0.83 0.05 0.83 0.13 0.83-0.17 0.83-0.07 0.84 0.03 0.83-0.09 0.69 0.44-0.04 0.68 0.13 0.83 0.18 0.83-0.24 0.82 0.24 0.82-0.29 0.83 0.24 0.83 0.05 0.83 0.05 0.82-0.31 0.82 0.36 0.82-0.32 0.83 0.15 0.82v0.83l0.05 0.83 0.18 0.82-0.46 0.82 0.04 0.83 0.26 0.83 0.01 0.82-0.07 0.83 0.05 0.83 0.06 0.83-0.04 0.82-0.04 0.83-0.12 0.53c1.79-0.2 3.59-0.22 4.96 0.93 1.22 1.02 0.28 3.88 0.21 5.03m11.89-9.9v0.02c-0.04 0.46-0.09 0.92-0.13 1.386l0.03 0.25-0.06 0.82 0.04 0.82 0.14 0.82-0.07 0.82-0.01 0.83 0.03 0.82 0.05 0.82 0.08 0.82-0.03 0.83-0.18 0.82-0.16 0.83 0.05 0.83 0.09 0.83 0.06 0.83-0.26 0.66-0.66 0.11-0.2-0.01c-0.07 0.05-0.16 0.08-0.25 0.08h-1.179l-0.796 0.15-0.83-0.12-0.167-0.02h-2.67l-0.488 0.09-0.84 0.04-0.23-0.13h-0.15c-0.48 0-0.67-0.69-0.57-1.23l-0.13-0.42-0.01-0.82 0.09-0.82 0.22-0.82-0.22-0.82 0.01-0.82 0.11-0.83-0.23-0.82 0.05-0.82 0.17-0.82 0.13-0.82-0.09-0.82 0.09-0.82-0.14-0.82 0.01-0.82-0.02-0.82 0.02-0.82 0.1-0.82-0.08-0.82 0.02-0.82-0.01-0.82-0.13-0.82 0.23-0.82-0.07-0.82 0.05-0.82v-0.83l-0.28-0.82 0.18-0.82 0.01-0.83-0.17-0.83 0.11-0.82-0.12-0.83 0.04-0.82 0.02-0.83 0.01-0.83 0.18-0.83 0.02-0.05c-0.06-0.52 0.13-1.13 0.58-1.14 2.26-0.07 5.72-0.91 7.61 0.22l0.11 0.07 0.14 0.09 0.34 0.22 0.4 0.6-0.01 0.09c0.18 0.36 0.29 0.79 0.33 1.31 0.35 4.9 0.12 9.98-0.33 15m0.75 22.32-0.45 0.784-0.4 0.81-0.59 0.68-0.67 0.6-0.79 0.433-0.82 0.35-0.87 0.18-0.89 0.15-0.9-0.06-0.84-0.31-0.83-0.29-0.76-0.453-0.69-0.56-0.55-0.69-0.45-0.76-0.35-0.81-0.25-0.85-0.04-0.89 0.12-0.9 0.2-0.88 0.29-0.856 0.45-0.79 0.65-0.64 0.65-0.62 0.72-0.54 0.85-0.32 0.87-0.26 0.91-0.05 0.89 0.08 0.85 0.26 0.81 0.34 0.72 0.5 0.72 0.52 0.6 0.67 0.39 0.8 0.41 0.79 0.12 0.89 0.14 0.88-0.06 0.9-0.18 0.89zm13.23-20.04c0.19 0.514 0.46 0.984 0.77 1.42l0.14 0.11 0.09 0.18c0.23 0.28 0.47 0.55 0.74 0.8l0.35 0.13 0.71 0.39 0.71 0.42 0.81 0.14 0.79 0.31 0.84-0.07 0.84 0.065 0.82-0.21 0.74-0.41 0.76-0.28 0.82-0.21 0.57-0.62 0.67-0.48-0.13-0.13 0.54-0.65 0.67-0.59 0.26-0.84 0.28-0.81 0.14-0.84 0.14-0.86-0.08-0.86 0.2-0.88-0.28-0.84-0.1-0.86-0.41-0.77-0.13-0.91-0.47-0.75-0.69-0.58-0.52-0.67-0.77-0.35-0.62-0.6-0.78-0.32-0.83-0.17-0.83-0.18-0.85 0.21-0.81 0.08-0.84-0.07-0.74 0.39-0.77 0.24-0.69 0.43-0.48 0.17c-2.41 2.74-2.86 6.954-1.59 10.34m22.72-3.86-0.07 0.86-0.23 0.85-0.24 0.83-0.01 0.87-0.39 0.78-0.11 0.86-0.42 0.76-0.07 0.9-0.56 0.685-0.33 0.8 0.07 0.04-0.42 0.77-0.65 0.61-0.38 0.8-0.62 0.62-0.58 0.65-0.81 0.397-0.67 0.54-0.48 0.82-0.75 0.46-0.85 0.29-0.74 0.28-0.63 0.54-0.76 0.24-0.79 0.16-0.73 0.3-0.74 0.34-0.83-0.08-0.77 0.14-0.75 0.41-0.81-0.11-0.8 0.17-0.85-0.35-0.87 0.17-0.86-0.09-0.82-0.28-0.85-0.14-0.75-0.44-0.84-0.19-0.75-0.43-0.8-0.29-0.85-0.23-0.72-0.48-0.58-0.67-0.78-0.4-0.59-0.63-0.12 0.13-0.61-0.56-0.4-0.74-0.64-0.52-0.52-0.63-0.52-0.64-0.41-0.71-0.51-0.654-0.16-0.84-0.49-0.67-0.2-0.8-0.38-0.73 0.06-0.855-0.14-0.79-0.27-0.777 0.05-0.81-0.23-0.79 0.21-0.81 0.02-0.8v-0.807l0.15-0.79-0.05-0.82-0.01-0.83 0.31-0.76 0.29-0.76 0.14-0.81 0.61-0.62 0.19-0.81 0.44-0.68 0.31-0.77 0.54-0.613 0.51-0.62 0.65-0.52 0.62-0.52 0.56-0.57 0.44-0.71 0.71-0.4 0.61-0.54 0.65-0.49 0.75-0.33 0.71-0.383 0.74-0.32 0.72-0.37 0.38-0.12c5.57-2.26 13-0.63 17.28 3.22 3.1 2.78 4.65 7.26 4.51 11.54l0.01 0.19 0.27 0.87zm33.47-11.12c0.2 4.1-0.7 8.38-0.6 12.454 0.12 4.88-0.72 9.76-4.38 13.27-1.77 1.69-4.31 2.13-6.9 1.86l-0.29 0.09-0.79-0.06-0.77-0.17-0.75-0.21-0.78-0.1-0.74-0.237-0.75-0.23-0.76-0.21-0.68-0.4-0.64-0.46-0.72-0.323-0.18-0.15c-0.04 0.4-0.12 0.8-0.26 1.19 0.02 0.48-0.16 0.97-0.56 1-0.75 0.98-1.79 1.34-3.11 1.33-1.22-0.01-2.72-0.04-3.85-0.54-0.26-0.11-0.48-0.26-0.67-0.42-0.77 0.12-1.51-0.29-1.5-1.48 0.02-4.48 0.12-8.96 0.18-13.44v-0.02c0.01-0.66 0.02-1.32 0.02-1.975l-0.01-0.49 0.03-0.3v-1.08l-0.01-0.24 0.02-0.07v-1.34l-0.08-0.27-0.02-0.82 0.1-0.27c0-0.6 0.01-1.21 0-1.82v-0.03l-0.05-0.34 0.04-0.09c-0.1-2.61-0.83-5.67 0.27-7.78l0.02-0.23 0.15-0.07 0.02-0.04c0.05-0.38 0.23-0.69 0.54-0.63 0.47-0.46 1.08-0.84 1.9-1.11 2.87-0.94 7.01 0 6.97 3.59-0.04 3.46-0.23 6.91-0.43 10.36l0.07 0.46-0.11 0.26-0.02 0.3c0.01 1.05 0.06 2.1 0.19 3.13l0.03 0.07-0.02 0.08c0.04 0.33 0.09 0.66 0.15 0.98 0.03 0.07 0.07 0.14 0.1 0.23 1.05 3.42 4.33 5.19 7.78 4.1 0.21-0.06 0.4-0.16 0.58-0.26l0.05-0.22 0.47-0.755-0.2-0.05 0.37-0.79 0.14-0.85-0.11-0.86 0.15-0.85-0.09-0.86 0.07-0.85 0.09-0.85-0.07-0.86-0.1-0.81 0.02-0.81 0.25-0.8-0.03-0.8-0.29-0.8 0.26-0.81-0.16-0.81-0.11-0.81 0.35-0.82-0.3-0.81 0.14-0.81 0.06-0.81-0.09-0.81 0.11-0.81-0.13-0.82 0.01-0.82 0.04-0.05v-0.04c0-0.91 0.85-1.75 1.67-1.97 2.44-1.53 6.78-1.15 8.15 1.11 0.77 1.29 0.82 2.95 0.52 4.68"/>
 </g>
</svg>
